<?xml version="1.0" encoding="utf-8"?>
<!-- Generator: Adobe Illustrator 27.0.0, SVG Export Plug-In . SVG Version: 6.00 Build 0)  -->
<svg version="1.1" id="Layer_1" xmlns="http://www.w3.org/2000/svg" xmlns:xlink="http://www.w3.org/1999/xlink" x="0px" y="0px"
	 viewBox="0 0 394 86.3" style="enable-background:new 0 0 394 86.3;" xml:space="preserve">
<style type="text/css">
	.st0{fill:#3D454E;}
	.st1{fill:#1E252B;}
	.st2{fill:#EDF2F6;}
</style>
<path class="st0" d="M197.4,14.5c62.4,0,124.9,0,187.3,0c4.9,0,8.3,3.3,8.3,8.3c-0.1,18,0,36,0,54.1c0,4.7-3.2,7.9-7.9,7.9
	c-125.2,0-250.3,0-375.5,0c-4.7,0-7.9-3.2-7.9-7.9c0-18.1,0-36.3,0-54.4c0-4.7,3.2-7.9,8-7.9C72.3,14.5,134.8,14.5,197.4,14.5z
	 M197.2,82.2c62.6,0,125.1,0,187.7,0c3.5,0,5.5-2,5.5-5.5c0-18.1,0-36.2,0-54.3c0-3.3-2-5.4-5.4-5.4c-125.1,0-250.2,0-375.4,0
	c-3.4,0-5.4,2-5.4,5.5c0,18,0.1,36-0.1,54.1c0,3.3,2.4,5.7,5.8,5.7C72.4,82.2,134.8,82.2,197.2,82.2z"/>
<path class="st1" d="M197.2,82.2c-62.4,0-124.9,0-187.3,0.1c-3.3,0-5.8-2.4-5.8-5.7c0.1-18,0.1-36,0.1-54.1c0-3.4,2-5.5,5.4-5.5
	c125.1,0,250.2,0,375.4,0c3.3,0,5.4,2.1,5.4,5.4c0,18.1,0,36.2,0,54.3c0,3.5-2,5.5-5.5,5.5C322.4,82.2,259.8,82.2,197.2,82.2z
	 M53.4,58.3c1,1.2,1.2,2.6,1.2,4.1c0,1.5,0,3,0,4.5c0,1.1,0.6,1.5,1.6,1.2c9-2.8,14.8-12.9,12.9-22.2c-2.2-10.7-11.7-17.3-22.7-15.8
	c-8.7,1.2-16.1,9-16.7,17.6c-0.6,8.9,4.2,16.7,12.6,20.1c1.9,0.8,2.4,0.5,2.3-1.5c0-0.8,0.3-1.9-0.2-2.4c-0.4-0.6-1.6-0.1-2.4-0.1
	c-1.5-0.1-3-0.4-3.8-1.8c-0.8-1.4-1.4-2.9-2.9-3.8C35.2,58,35,57.7,35,57.6c0-0.3,0.4-0.3,0.6-0.3c0.8-0.1,1.4,0.2,2,0.6
	c0.7,0.5,1.1,1.2,1.6,1.9c1.1,1.5,3,2,4.7,1.4c0.4-0.1,0.7-0.2,0.8-0.7c0.1-0.8,0.6-1.4,1-2.2c-0.5-0.1-1-0.2-1.5-0.3
	c-6.5-1.1-9.6-8.7-5.8-14.1c0.3-0.5,0.4-0.9,0.3-1.5c-0.3-1.1-0.2-2.2,0-3.2c0.2-1,0.6-1.4,1.7-1.1c1.1,0.3,2.2,0.8,3.2,1.4
	c0.6,0.4,1.2,0.4,1.9,0.3c2.6-0.6,5.3-0.6,7.9,0c0.9,0.2,1.5,0.1,2.2-0.4c1-0.6,2.1-1.1,3.2-1.3c0.8-0.2,1.2,0.1,1.4,0.9
	c0.3,1.2,0.4,2.4,0.1,3.6c-0.1,0.4-0.1,0.8,0.2,1.2c2.3,3.1,2,6.3,0.7,9.7c-0.8,2.1-2.4,3.4-4.5,4.1C55.7,57.7,54.5,58,53.4,58.3z
	 M341.3,57.5c0,1.2,0,2,0,2.9c-0.1,1.1-0.5,2.1-1.5,2.7c-1.7,0.9-4.2,0.5-5.6-0.9c-0.2-0.2-0.4-0.4-0.7-0.4c-0.9,0-1.8,0-2.8,0
	c-0.6,0-0.6,0.2-0.5,0.8c0.4,1.4,1.2,2.4,2.4,3c3,1.4,6.1,1.4,9.1,0.2c1.9-0.8,3.3-2.2,3.4-4.3c0.1-5.3,0.1-10.7,0.1-16
	c0-0.3,0.1-0.7-0.3-0.7c-1.1,0-2.3-0.2-3.4,0.1c-0.6,0.2-0.1,1.3-0.3,2c0,0-0.1,0.1-0.2,0.1c-2.5-3.1-6.5-3.4-9.3-0.6
	c-2.6,2.6-2.7,5.8-1.8,9.2c0.7,2.5,2.2,4.2,4.8,4.7C337.3,60.5,339.6,60.1,341.3,57.5z M245.8,58.3c1.6,2.6,3.9,3.2,6.3,2.8
	c2.4-0.4,4-1.9,4.8-4.2c0.7-2.1,0.9-4.2,0.5-6.4c-0.5-2.7-1.7-4.9-4.4-5.8c-2.8-0.9-5.2-0.2-7.1,2.3c-0.2-2.4-0.2-2.4-2.7-2.4
	c0,0-0.1,0-0.1,0c-1-0.2-1.3,0.2-1.3,1.2c0,5.8,0,11.7,0,17.5c0,3,0,3,3.1,2.9c0.7,0,0.9-0.2,0.9-0.9
	C245.7,63.2,245.8,60.9,245.8,58.3z M194.3,46.6c0-1.8,0-3.6,0-5.3c0-2.9,0-2.9-2.9-2.9c-0.9,0-1.1,0.3-1.1,1.1c0,6.2,0,12.4,0,18.7
	c0,2.8,0,2.7,2.8,2.8c1,0,1.2-0.3,1.2-1.2c0-3-0.2-6.1,0.1-9.1c0.2-1.8,1.7-3,3.5-2.9c1.8,0.1,2.8,1.2,2.8,3.1c0,2.4,0,4.8,0,7.1
	c0,3,0,3,3.1,3c0.7,0,0.9-0.2,0.9-0.9c0-3.3,0-6.7,0-10c0-1.1-0.3-2.2-0.8-3.2C202.4,43.9,196.8,43.2,194.3,46.6z M300.1,51.2
	c-0.1-0.5-0.1-0.7-0.1-0.9c0-3.1,0-6.1,0-9.2c0-2.8,0-2.7-2.7-2.8c-1.1,0-1.2,0.4-1.2,1.3c0,6.1,0,12.3,0,18.4c0,2.9,0,2.9,2.9,2.9
	c0.8,0,1-0.2,1-1c-0.1-1.3,0-2.7,0-4c0-0.8,0.5-1.3,1-1.6c0.4-0.2,0.7,0.5,0.9,0.9c1.2,1.6,2.4,3.3,3.7,4.9c0.3,0.4,0.5,0.8,1,0.8
	c1.4,0,2.7,0,4.3,0c-0.4-0.5-0.6-0.9-0.8-1.2c-1.8-2.4-3.6-4.9-5.5-7.3c-0.5-0.6-0.5-1,0.1-1.5c1.7-1.7,3.4-3.5,5-5.3
	c0.2-0.2,0.6-0.4,0.5-1c-1,0-2.1,0.1-3.1,0c-0.9-0.1-1.5,0.3-2,0.9C303.5,47.3,301.9,49.1,300.1,51.2z M322.1,59c0.3,2,0.3,2,2.4,2
	c0.3,0,0.7,0,1,0c0.6,0.1,0.8-0.2,0.8-0.8c0-3.4,0.1-6.8,0-10.1c-0.1-3.1-1.5-4.7-4.5-5.4c-1.9-0.4-3.8-0.3-5.7,0.4
	c-1.6,0.6-2.8,1.6-3.2,3.4c-0.1,0.3-0.2,0.6,0,0.8c0.4,0.4,3.5,0,3.9-0.5c0.8-1,2.7-1.4,4-0.9c1.2,0.5,1.6,1.4,1.6,2.6
	c0,0.7-0.2,0.8-0.8,0.9c-1.7,0.1-3.5,0.1-5.2,0.5c-2.5,0.5-4.1,2.2-4.2,4.5c-0.1,2.3,1.4,4.3,3.9,4.8
	C318.3,61.5,320.5,61.2,322.1,59z M145.2,58.9c0,0.6-0.1,1,0,1.3c0.6,1.6,1.9,0.4,2.8,0.7c0.4,0.1,1.2,0.3,1.2-0.7c0-3.5,0-7,0-10.5
	c-0.1-2.6-1.4-4.3-4-5c-2.1-0.6-4.2-0.5-6.2,0.3c-1.7,0.6-2.9,1.7-3.3,3.6c-0.1,0.2-0.2,0.5,0.1,0.6c0.7,0.3,3.4-0.1,3.9-0.7
	c1-1,3.5-1.2,4.6-0.3c0.9,0.7,0.9,1.7,0.7,2.6c-0.1,0.7-1,0.3-1.5,0.4c-1.8,0.3-3.6,0.1-5.3,0.7c-2.1,0.7-3.3,2.2-3.3,4.3
	c0,2.2,1.1,4,3.1,4.6C140.7,61.6,143.1,61.3,145.2,58.9z M270.4,58.7c0,0.7,0,1.1,0,1.4c-0.1,0.8,0.4,1,0.9,0.8c1-0.4,2.7,1,2.9-0.7
	c0.2-3.7,0.2-7.3,0-11c-0.1-1.7-0.9-3-2.4-3.8c-2.4-1.4-6.8-1.3-9.1,0.4c-0.9,0.7-1.6,1.6-1.9,2.7c-0.1,0.2-0.2,0.6,0.2,0.8
	c0.7,0.3,3.4-0.2,3.9-0.7c0.7-0.8,2.7-1.1,3.9-0.7c1.2,0.5,1.5,1.4,1.6,2.6c0,0.7-0.2,0.8-0.8,0.8c-1.8,0.1-3.6,0.1-5.4,0.5
	c-2.5,0.5-4.1,2.3-4.1,4.6c0,2.4,1.5,4.3,3.9,4.8C266.4,61.5,268.7,61.1,270.4,58.7z M363.7,56.3c-1,0-1.9,0-2.9,0
	c-0.5,0-0.8,0.1-1.2,0.5c-1.1,1.2-2.5,1.5-4.1,1.1c-1.6-0.4-2.4-1.6-2.8-3.1c-0.2-0.6-0.1-1.1,0.8-1c2.6,0.1,5.1,0,7.7,0
	c2.7,0,2.7,0,2.5-2.7c-0.2-2.9-1.6-5.2-4.4-6.3c-3-1.1-5.9-0.9-8.3,1.4c-2.6,2.5-2.8,5.6-2.2,8.9c0.6,3,2.3,5,5.4,5.8
	c1.3,0.3,2.6,0.2,3.9,0.1C360.8,60.9,363.1,58.9,363.7,56.3z M92.9,47c-0.2-2.4-0.2-2.4-2.5-2.4c-0.2,0-0.3,0-0.5,0
	c-0.9-0.1-1.1,0.3-1.1,1.1c0,4.7,0,9.4,0,14.2c0,0.8,0.3,1,1.1,1c2.9,0,2.9,0,2.9-2.9c0-2.5-0.2-4.9,0.1-7.4c0.3-2,1.7-3.1,3.5-3
	c1.8,0.1,2.8,1.4,2.8,3.6c0,2.2,0,4.4,0,6.6c0,3.1,0,3.1,3.2,3c0.1,0,0.2,0,0.3,0c0.4,0,0.6-0.2,0.6-0.6c-0.1-3.9,0.3-7.9-0.2-11.8
	c-0.3-1.9-1.3-3.3-3.1-3.9C97.8,44,94.7,44,92.9,47z M113.5,61.2c1.2,0,2.3-0.1,3.4-0.5c2.3-0.9,3.7-2.6,3.6-4.7
	c0-2.2-1.1-3.4-3.7-4.2c-0.3-0.1-0.6-0.2-1-0.3c-1.3-0.3-2.6-0.6-3.8-1c-1.4-0.5-1.5-1.8-0.4-2.6c1.1-0.8,3.4-0.8,4.2,0.2
	c0.7,1,1.5,1.1,2.5,1c0.6-0.1,1.6,0.3,1.8-0.2c0.3-0.6-0.3-1.4-0.7-2.1c-0.1-0.2-0.3-0.4-0.5-0.6c-2-2.1-6.5-2.6-9.4-1
	c-2.1,1.2-2.9,2.7-2.5,5.1c0.3,1.9,1.6,2.8,3.2,3.3c1.6,0.5,3.3,0.8,4.9,1.3c0.7,0.2,1.3,0.7,1.3,1.5c0,0.8-0.5,1.3-1.3,1.5
	c-1.4,0.5-3,0.6-4-0.5c-0.8-1-1.7-1.1-2.8-1c-0.6,0-1.5-0.4-1.8,0.3c-0.3,0.7,0.3,1.4,0.7,2c0.1,0.2,0.3,0.4,0.5,0.6
	C109.4,60.9,111.4,61.2,113.5,61.2z M223.2,61.2c1.9,0,3.5-0.4,4.8-1.1c1.9-1.2,2.7-3.1,2.2-5.3c-0.5-2-2.2-2.6-3.9-3.1
	c-1.5-0.4-3-0.7-4.5-1.1c-0.6-0.2-1.1-0.7-1.1-1.4c0-0.7,0.5-1.2,1.1-1.6c1.1-0.6,3.1-0.5,3.7,0.5c0.7,1.2,1.7,1.1,2.7,1
	c0.6,0,1.4,0.4,1.7-0.2c0.3-0.6-0.2-1.3-0.6-2c-0.1-0.2-0.4-0.5-0.6-0.7c-2-2-6.3-2.6-9.1-1.1c-2.1,1.1-3,2.6-2.7,5
	c0.2,2,1.6,3,3.4,3.5c0.6,0.2,1.3,0.3,1.9,0.5c1.1,0.3,2.2,0.4,3.2,1c1.2,0.7,1.3,1.9,0.1,2.7c-1.1,0.7-3.6,0.8-4.3-0.2
	c-0.9-1.3-2.1-1.1-3.3-1.1c-1.8,0-1.9,0.2-1,1.9c0,0.1,0.1,0.1,0.1,0.2C218.5,60.8,220.8,61.2,223.2,61.2z M277.7,52.8
	c0,4.5,1.9,7.3,5.5,8.3c1.1,0.3,2.2,0.2,3.4,0.1c2.5-0.2,4.4-1.4,5.5-3.7c0.9-1.9,0.7-2.1-1.3-2.1c-0.3,0-0.7,0-1,0
	c-0.6-0.1-1,0.2-1.2,0.7c-1.1,2.3-4.4,2.5-5.9,0.4c-1.3-1.8-1.3-5.5-0.2-7.4c1.4-2.2,4.8-2.2,5.9,0.1c0.4,0.9,0.9,1.1,1.8,1
	c0.5-0.1,1,0,1.5,0c0.7,0.1,0.9-0.2,0.8-0.9c-0.3-1-0.6-2-1.3-2.8c-2.3-2.6-7.2-3.2-10.2-1.2C278.4,47.2,277.6,49.8,277.7,52.8z
	 M125,52.8C125,52.8,125,52.8,125,52.8c0,1.4,0,2.8,0,4.1c0.1,2.5,1.5,3.9,4,4c0.4,0,0.8,0.1,1.3,0.1c2.3,0.1,2.2,0.1,2.2-2.2
	c0-0.7-0.1-1-1-1c-1.8,0.1-2.5-0.6-2.5-2.5c0-2,0.1-4.1,0-6.1c-0.1-1.2,0.2-1.6,1.5-1.5c2.3,0.1,2,0.4,2-2c0-0.1,0-0.3,0-0.4
	c0-0.6-0.3-0.7-0.8-0.7c-0.9,0-2.1,0.4-2.5-0.2c-0.4-0.6-0.2-1.7-0.2-2.7c0-0.2,0-0.3,0-0.5c0-0.4-0.2-0.6-0.6-0.6
	c-3-0.5-3.5-0.2-3.4,2.8c0,1.1-0.3,1.3-1.3,1.2c-0.4,0-1.1-0.2-1.1,0.2c-0.2,0.8-0.2,1.8-0.1,2.6c0.1,0.7,0.9,0.4,1.4,0.3
	c0.8,0,1.1,0.2,1,1C125,50.1,125,51.4,125,52.8z M179.4,52.8C179.4,52.8,179.4,52.8,179.4,52.8c0,1.4,0,2.8,0,4.3
	c0.1,2.3,1.4,3.6,3.6,3.9c0.5,0.1,1.1,0.1,1.6,0.1c2.3,0.1,2.2,0.1,2.2-2.2c0-0.7-0.1-1-0.9-1c-1.8,0.1-2.5-0.6-2.5-2.4
	c0-1.7,0-3.4,0-5.1c0-2.4,0-2.4,2.4-2.5c0.7,0,1-0.1,1.1-1c0-2.2,0.1-2.2-2.2-2.2c-0.2,0-0.3,0-0.5,0c-0.7,0.1-0.9-0.2-0.8-0.8
	c0.1-0.8,0-1.6,0-2.4c0-0.5-0.2-0.7-0.7-0.8c-3.3-0.3-3.3-0.3-3.3,2.9c0,0,0,0.1,0,0.1c0.2,0.8-0.2,1-1,0.9c-0.5,0-1.3-0.3-1.4,0.2
	c-0.2,0.8-0.2,1.8-0.1,2.6c0.1,0.7,0.9,0.4,1.4,0.3c0.8,0,1.1,0.2,1.1,1C179.3,50.1,179.4,51.4,179.4,52.8z M157.5,49.7
	c0-2.9,0-5.8,0-8.6c0-2.7,0-2.7-2.7-2.7c-1.1,0-1.3,0.4-1.3,1.4c0,6.1,0,12.2,0,18.3c0,3,0,2.9,3,2.9c0.9,0,1-0.3,1-1.1
	C157.4,56.5,157.5,53.1,157.5,49.7z M162,49.7c0,2.8,0,5.7,0,8.5c0,2.8,0,2.7,2.8,2.8c1,0,1.2-0.3,1.2-1.2c0-6.2,0-12.3,0-18.5
	c0-2.9,0-2.8-2.9-2.9c-0.9,0-1.1,0.3-1.1,1.2C162,42.9,162,46.3,162,49.7z M84.2,50.3c0-2.6,0-5.2,0-7.8c0-3,0-2.9-3-3
	c-1,0-1.1,0.4-1.1,1.2c0,5.7,0,11.4,0,17.2c0,3.1,0,3,3,3c0.9,0,1.1-0.3,1-1.1C84.2,56.6,84.2,53.5,84.2,50.3z M212.8,52.9
	c0-1.8,0-3.7,0-5.5c0-2.8,0-2.8-2.8-2.8c-0.9,0-1.1,0.2-1.1,1.1c0,4.1,0,8.2,0,12.3c0,3,0,3,3,2.9c0.7,0,0.9-0.2,0.9-0.9
	C212.8,57.6,212.8,55.3,212.8,52.9z M211,42.1c1.3,0,2.3-1.1,2.3-2.3c0-1.2-1.2-2.3-2.4-2.3c-1.2,0-2.3,1.2-2.3,2.4
	C208.6,41.2,209.7,42.2,211,42.1z"/>
<path class="st2" d="M53.4,58.3c1.2-0.3,2.3-0.5,3.4-0.9c2.1-0.7,3.7-2,4.5-4.1c1.3-3.3,1.5-6.6-0.7-9.7c-0.3-0.4-0.3-0.7-0.2-1.2
	c0.3-1.2,0.2-2.4-0.1-3.6c-0.2-0.8-0.6-1.1-1.4-0.9c-1.1,0.3-2.2,0.7-3.2,1.3c-0.7,0.5-1.4,0.6-2.2,0.4c-2.6-0.6-5.2-0.6-7.9,0
	c-0.7,0.2-1.3,0.1-1.9-0.3c-1-0.6-2.1-1.1-3.2-1.4c-1.1-0.3-1.5,0.1-1.7,1.1c-0.2,1.1-0.3,2.2,0,3.2c0.1,0.6,0,1-0.3,1.5
	c-3.8,5.4-0.7,12.9,5.8,14.1c0.5,0.1,1,0.2,1.5,0.3c-0.4,0.8-0.9,1.4-1,2.2c-0.1,0.5-0.4,0.6-0.8,0.7c-1.7,0.6-3.6,0.1-4.7-1.4
	c-0.5-0.7-0.9-1.4-1.6-1.9c-0.6-0.4-1.2-0.7-2-0.6c-0.2,0-0.6,0.1-0.6,0.3c0,0.2,0.1,0.4,0.3,0.5c1.5,0.9,2.1,2.4,2.9,3.8
	c0.8,1.4,2.2,1.7,3.8,1.8c0.8,0,1.9-0.4,2.4,0.1c0.4,0.5,0.1,1.6,0.2,2.4c0,2-0.4,2.3-2.3,1.5C33.9,64.3,29,56.6,29.7,47.6
	c0.6-8.6,8-16.4,16.7-17.6c11-1.5,20.4,5.1,22.7,15.8c1.9,9.3-3.9,19.4-12.9,22.2c-1,0.3-1.6-0.1-1.6-1.2c0-1.5,0-3,0-4.5
	C54.6,60.9,54.3,59.5,53.4,58.3z"/>
<path class="st2" d="M341.3,57.5c-1.7,2.6-4.1,3-6.5,2.6c-2.6-0.5-4.2-2.2-4.8-4.7c-0.9-3.3-0.8-6.6,1.8-9.2
	c2.8-2.8,6.8-2.4,9.3,0.6c0.1,0,0.2-0.1,0.2-0.1c0.1-0.7-0.3-1.8,0.3-2c1-0.3,2.2-0.1,3.4-0.1c0.4,0,0.3,0.4,0.3,0.7
	c0,5.3,0,10.7-0.1,16c0,2.1-1.5,3.5-3.4,4.3c-3,1.3-6.1,1.3-9.1-0.2c-1.3-0.6-2.1-1.6-2.4-3c-0.1-0.6-0.1-0.8,0.5-0.8
	c0.9,0,1.8,0,2.8,0c0.3,0,0.5,0.1,0.7,0.4c1.3,1.4,3.9,1.9,5.6,0.9c1.1-0.6,1.5-1.6,1.5-2.7C341.4,59.5,341.3,58.7,341.3,57.5z
	 M333.6,52.3c0,2.6,1.4,4.4,3.4,4.6c3.3,0.3,4.5-2.6,4.3-5c-0.2-2.3-1.3-3.8-3-4.1C335.5,47.3,333.6,49.2,333.6,52.3z"/>
<path class="st2" d="M245.8,58.3c0,2.6,0,4.8,0,7.1c0,0.7-0.2,0.9-0.9,0.9c-3.1,0.1-3.1,0.1-3.1-2.9c0-5.8,0-11.7,0-17.5
	c0-1,0.3-1.4,1.3-1.2c0,0,0.1,0,0.1,0c2.5,0,2.5,0,2.7,2.4c1.8-2.6,4.3-3.2,7.1-2.3c2.8,0.9,3.9,3.1,4.4,5.8
	c0.4,2.2,0.2,4.3-0.5,6.4c-0.8,2.3-2.4,3.8-4.8,4.2C249.6,61.5,247.4,60.9,245.8,58.3z M249.6,47.8c-1.5-0.1-2.6,0.7-3.2,2.1
	c-0.9,2-0.9,4,0.1,6c0.6,1.3,1.8,1.9,3.1,1.9c1.4,0,2.5-0.6,3.2-1.9c1-2,1-4.1,0.1-6.1C252.2,48.5,251.2,47.8,249.6,47.8z"/>
<path class="st2" d="M194.3,46.6c2.5-3.4,8.1-2.7,9.6,0.2c0.5,1,0.8,2.1,0.8,3.2c0,3.3,0,6.7,0,10c0,0.7-0.2,0.9-0.9,0.9
	c-3.1,0-3.1,0.1-3.1-3c0-2.4,0-4.8,0-7.1c0-2-1.1-3-2.8-3.1c-1.8-0.1-3.3,1.1-3.5,2.9c-0.3,3-0.1,6.1-0.1,9.1c0,0.9-0.2,1.2-1.2,1.2
	c-2.8-0.1-2.8,0-2.8-2.8c0-6.2,0-12.4,0-18.7c0-0.8,0.2-1.1,1.1-1.1c2.9,0,2.9,0,2.9,2.9C194.3,43,194.3,44.8,194.3,46.6z"/>
<path class="st2" d="M300.1,51.2c1.8-2,3.5-3.8,5-5.6c0.6-0.6,1.1-1,2-0.9c1,0.1,2.1,0,3.1,0c0.1,0.6-0.3,0.7-0.5,1
	c-1.7,1.8-3.3,3.6-5,5.3c-0.6,0.6-0.5,0.9-0.1,1.5c1.9,2.4,3.7,4.9,5.5,7.3c0.2,0.3,0.5,0.7,0.8,1.2c-1.5,0-2.9,0-4.3,0
	c-0.6,0-0.8-0.4-1-0.8c-1.2-1.6-2.4-3.3-3.7-4.9c-0.3-0.3-0.5-1.1-0.9-0.9c-0.6,0.2-1.1,0.8-1,1.6c0,1.3,0,2.7,0,4c0,0.8-0.2,1-1,1
	c-2.9,0-2.9,0-2.9-2.9c0-6.1,0-12.3,0-18.4c0-0.9,0.1-1.3,1.2-1.3c2.7,0.1,2.7,0,2.7,2.8c0,3.1,0,6.1,0,9.2
	C300,50.5,300,50.7,300.1,51.2z"/>
<path class="st2" d="M322.1,59c-1.6,2.2-3.9,2.6-6.3,2.1c-2.5-0.5-4-2.5-3.9-4.8c0.1-2.3,1.7-4,4.2-4.5c1.7-0.3,3.5-0.4,5.2-0.5
	c0.7,0,0.8-0.2,0.8-0.9c0-1.2-0.4-2.1-1.6-2.6c-1.3-0.5-3.2-0.1-4,0.9c-0.4,0.4-3.4,0.8-3.9,0.5c-0.3-0.2-0.1-0.5,0-0.8
	c0.4-1.7,1.7-2.8,3.2-3.4c1.8-0.7,3.8-0.8,5.7-0.4c3,0.7,4.4,2.3,4.5,5.4c0.1,3.4,0,6.8,0,10.1c0,0.6-0.1,0.9-0.8,0.8
	c-0.3,0-0.7,0-1,0C322.4,60.9,322.4,60.9,322.1,59z M322.3,54.7c0.1-0.5-0.1-0.8-1-0.8c-1.2,0.1-2.3,0.1-3.5,0.3
	c-0.9,0.2-1.6,0.6-1.8,1.6c-0.2,0.8,0.2,1.4,0.8,1.8c1.1,0.7,2.3,0.7,3.6,0.1C321.5,57.1,322.2,56.2,322.3,54.7z"/>
<path class="st2" d="M145.2,58.9c-2.1,2.4-4.5,2.7-7.1,1.9c-2-0.6-3.1-2.4-3.1-4.6c0-2.1,1.2-3.6,3.3-4.3c1.7-0.6,3.6-0.4,5.3-0.7
	c0.5-0.1,1.3,0.3,1.5-0.4c0.2-0.9,0.1-1.9-0.7-2.6c-1.1-0.9-3.7-0.7-4.6,0.3c-0.5,0.6-3.3,1-3.9,0.7c-0.3-0.2-0.2-0.4-0.1-0.6
	c0.4-1.8,1.7-3,3.3-3.6c2-0.8,4.1-0.8,6.2-0.3c2.5,0.7,3.9,2.4,4,5c0.1,3.5,0,7,0,10.5c0,1-0.7,0.9-1.2,0.7
	c-0.9-0.3-2.3,0.9-2.8-0.7C145.1,59.9,145.2,59.5,145.2,58.9z M145.2,54.8c0.2-0.8-0.1-1-1-1c-1.1,0-2.3,0.1-3.4,0.3
	c-0.9,0.1-1.6,0.7-1.8,1.6c-0.1,0.8,0.2,1.4,0.8,1.8c1.2,0.7,2.4,0.7,3.6,0.1C144.5,57.1,145.2,56.3,145.2,54.8z"/>
<path class="st2" d="M270.4,58.7c-1.7,2.4-4,2.8-6.4,2.4c-2.5-0.5-4-2.4-3.9-4.8c0-2.3,1.6-4.1,4.1-4.6c1.8-0.4,3.6-0.4,5.4-0.5
	c0.6,0,0.9-0.2,0.8-0.8c-0.1-1.2-0.4-2.1-1.6-2.6c-1.2-0.5-3.1-0.1-3.9,0.7c-0.5,0.6-3.2,1.1-3.9,0.7c-0.4-0.2-0.2-0.5-0.2-0.8
	c0.3-1.1,0.9-2,1.9-2.7c2.2-1.6,6.7-1.8,9.1-0.4c1.5,0.9,2.3,2.1,2.4,3.8c0.2,3.7,0.2,7.4,0,11c-0.1,1.7-1.9,0.4-2.9,0.7
	c-0.6,0.2-1.1,0-0.9-0.8C270.5,59.7,270.4,59.4,270.4,58.7z M268.6,53.9c-0.8-0.1-1.7,0.1-2.7,0.3c-0.8,0.1-1.6,0.5-1.8,1.5
	c-0.1,0.9,0.1,1.5,0.9,2c1.7,1,4.3,0.2,5.1-1.7C270.8,54.3,270.6,53.9,268.6,53.9z"/>
<path class="st2" d="M363.7,56.3c-0.6,2.6-2.8,4.5-5.5,4.8c-1.3,0.1-2.6,0.2-3.9-0.1c-3-0.8-4.8-2.8-5.4-5.8
	c-0.6-3.3-0.4-6.5,2.2-8.9c2.4-2.3,5.3-2.5,8.3-1.4c2.8,1,4.1,3.4,4.4,6.3c0.2,2.7,0.2,2.7-2.5,2.7c-2.6,0-5.1,0-7.7,0
	c-0.9,0-1,0.4-0.8,1c0.4,1.5,1.1,2.6,2.8,3.1c1.6,0.4,3,0.1,4.1-1.1c0.4-0.4,0.7-0.5,1.2-0.5C361.7,56.4,362.7,56.3,363.7,56.3z
	 M359.9,51.1c-0.4-2.4-1.5-3.6-3.5-3.6c-1.8,0-3.1,1.1-3.6,3c-0.2,0.6,0,0.6,0.5,0.6C355.5,51.1,357.7,51.1,359.9,51.1z"/>
<path class="st2" d="M92.9,47c1.8-3,4.9-3,7.1-2.3c1.8,0.6,2.9,2,3.1,3.9c0.5,3.9,0.1,7.8,0.2,11.8c0,0.4-0.1,0.6-0.6,0.6
	c-0.1,0-0.2,0-0.3,0c-3.2,0.1-3.2,0.1-3.2-3c0-2.2,0-4.4,0-6.6c0-2.2-1-3.4-2.8-3.6c-1.8-0.1-3.2,0.9-3.5,3
	c-0.4,2.4-0.1,4.9-0.1,7.4c0,2.9,0,2.9-2.9,2.9c-0.8,0-1.1-0.2-1.1-1c0-4.7,0-9.4,0-14.2c0-0.9,0.2-1.3,1.1-1.1c0.2,0,0.3,0,0.5,0
	C92.7,44.6,92.7,44.6,92.9,47z"/>
<path class="st2" d="M113.5,61.2c-2.1,0-4.1-0.4-5.6-1.9c-0.2-0.2-0.4-0.4-0.5-0.6c-0.4-0.6-1-1.4-0.7-2c0.3-0.6,1.2-0.2,1.8-0.3
	c1.1-0.1,1.9,0,2.8,1c1,1.2,2.5,1,4,0.5c0.7-0.2,1.2-0.7,1.3-1.5c0-0.9-0.6-1.3-1.3-1.5c-1.6-0.5-3.3-0.8-4.9-1.3
	c-1.6-0.5-2.9-1.4-3.2-3.3c-0.4-2.4,0.4-3.9,2.5-5.1c2.9-1.6,7.3-1.1,9.4,1c0.2,0.2,0.4,0.4,0.5,0.6c0.4,0.6,0.9,1.4,0.7,2.1
	c-0.3,0.6-1.2,0.2-1.8,0.2c-1,0.1-1.8,0-2.5-1c-0.8-1.1-3.1-1.1-4.2-0.2c-1.1,0.8-0.9,2.1,0.4,2.6c1.2,0.5,2.6,0.7,3.8,1
	c0.3,0.1,0.6,0.2,1,0.3c2.6,0.8,3.7,2,3.7,4.2c0,2.1-1.3,3.8-3.6,4.7C115.8,61.1,114.7,61.2,113.5,61.2z"/>
<path class="st2" d="M223.2,61.2c-2.5-0.1-4.8-0.5-6.2-2.8c0-0.1-0.1-0.1-0.1-0.2c-0.9-1.6-0.8-1.9,1-1.9c1.2,0,2.4-0.2,3.3,1.1
	c0.7,1,3.2,1,4.3,0.2c1.2-0.8,1.2-2-0.1-2.7c-1-0.6-2.1-0.6-3.2-1c-0.6-0.2-1.3-0.3-1.9-0.5c-1.8-0.5-3.2-1.5-3.4-3.5
	c-0.3-2.4,0.6-3.9,2.7-5c2.8-1.4,7.1-0.9,9.1,1.1c0.2,0.2,0.4,0.4,0.6,0.7c0.4,0.6,0.9,1.3,0.6,2c-0.3,0.6-1.1,0.2-1.7,0.2
	c-1,0.1-1.9,0.2-2.7-1c-0.6-1-2.6-1-3.7-0.5c-0.6,0.3-1.1,0.8-1.1,1.6c0,0.7,0.5,1.2,1.1,1.4c1.5,0.4,3,0.7,4.5,1.1
	c1.7,0.5,3.3,1.2,3.9,3.1c0.6,2.1-0.2,4.1-2.2,5.3C226.7,60.9,225.1,61.3,223.2,61.2z"/>
<path class="st2" d="M277.7,52.8c0-2.9,0.7-5.6,3.3-7.3c3.1-2,7.9-1.5,10.2,1.2c0.7,0.8,1.1,1.8,1.3,2.8c0.2,0.7-0.1,0.9-0.8,0.9
	c-0.5,0-1-0.1-1.5,0c-0.9,0.1-1.4-0.1-1.8-1c-1.1-2.3-4.5-2.2-5.9-0.1c-1.2,1.9-1.1,5.6,0.2,7.4c1.5,2.1,4.8,1.9,5.9-0.4
	c0.3-0.6,0.6-0.8,1.2-0.7c0.3,0,0.7,0,1,0c2,0,2.1,0.2,1.3,2.1c-1.1,2.3-2.9,3.5-5.5,3.7c-1.1,0.1-2.3,0.1-3.4-0.1
	C279.6,60.1,277.7,57.3,277.7,52.8z"/>
<path class="st2" d="M125,52.8c0-1.3-0.1-2.7,0-4c0-0.8-0.2-1.1-1-1c-0.5,0-1.3,0.3-1.4-0.3c-0.2-0.8-0.1-1.8,0.1-2.6
	c0.1-0.4,0.8-0.2,1.1-0.2c0.9,0.1,1.3-0.1,1.3-1.2c-0.1-3,0.4-3.3,3.4-2.8c0.4,0.1,0.6,0.2,0.6,0.6c0,0.2,0,0.3,0,0.5
	c0,0.9-0.3,2.1,0.2,2.7c0.4,0.6,1.6,0.1,2.5,0.2c0.5,0,0.8,0.2,0.8,0.7c0,0.1,0,0.3,0,0.4c0,2.5,0.3,2.1-2,2c-1.3,0-1.5,0.3-1.5,1.5
	c0.1,2,0,4.1,0,6.1c0,1.8,0.7,2.5,2.5,2.5c0.8,0,1,0.2,1,1c0,2.3,0,2.3-2.2,2.2c-0.4,0-0.8-0.1-1.3-0.1c-2.5-0.1-3.9-1.5-4-4
	C125,55.5,125,54.2,125,52.8C125,52.8,125,52.8,125,52.8z"/>
<path class="st2" d="M179.4,52.8c0-1.3-0.1-2.7,0-4c0.1-0.9-0.3-1.1-1.1-1c-0.5,0-1.3,0.3-1.4-0.3c-0.2-0.8-0.1-1.8,0.1-2.6
	c0.1-0.4,0.9-0.2,1.4-0.2c0.7,0,1.1-0.1,1-0.9c0,0,0-0.1,0-0.1c0-3.2,0-3.2,3.3-2.9c0.5,0.1,0.7,0.2,0.7,0.8c0,0.8,0,1.6,0,2.4
	c0,0.6,0.2,0.9,0.8,0.8c0.2,0,0.3,0,0.5,0c2.2,0,2.2,0,2.2,2.2c0,0.8-0.4,0.9-1.1,1c-2.4,0-2.4,0.1-2.4,2.5c0,1.7,0,3.4,0,5.1
	c0,1.8,0.7,2.5,2.5,2.4c0.9,0,0.9,0.3,0.9,1c0,2.3,0,2.3-2.2,2.2c-0.5,0-1.1,0-1.6-0.1c-2.2-0.2-3.5-1.6-3.6-3.9
	C179.3,55.6,179.4,54.2,179.4,52.8C179.4,52.8,179.4,52.8,179.4,52.8z"/>
<path class="st2" d="M157.5,49.7c0,3.4,0,6.8,0,10.1c0,0.8-0.2,1.1-1,1.1c-3,0-3,0-3-2.9c0-6.1,0-12.2,0-18.3c0-1,0.2-1.4,1.3-1.4
	c2.7,0.1,2.7,0,2.7,2.7C157.5,44,157.5,46.9,157.5,49.7z"/>
<path class="st2" d="M162,49.7c0-3.4,0-6.8,0-10.1c0-0.8,0.1-1.2,1.1-1.2c2.9,0,2.9,0,2.9,2.9c0,6.2,0,12.3,0,18.5
	c0,0.9-0.2,1.2-1.2,1.2c-2.8-0.1-2.8,0-2.8-2.8C162,55.3,162,52.5,162,49.7z"/>
<path class="st2" d="M84.2,50.3c0,3.2,0,6.3,0,9.5c0,0.8-0.1,1.2-1,1.1c-3,0-3,0-3-3c0-5.7,0-11.4,0-17.2c0-0.8,0.1-1.2,1.1-1.2
	c3,0.1,3,0,3,3C84.2,45.1,84.2,47.7,84.2,50.3z"/>
<path class="st2" d="M212.8,52.9c0,2.4,0,4.8,0,7.1c0,0.7-0.2,0.9-0.9,0.9c-3,0-3,0.1-3-2.9c0-4.1,0-8.2,0-12.3
	c0-0.9,0.3-1.1,1.1-1.1c2.8,0,2.8,0,2.8,2.8C212.8,49.2,212.8,51.1,212.8,52.9z"/>
<path class="st2" d="M211,42.1c-1.3,0-2.4-0.9-2.4-2.2c0-1.2,1.1-2.3,2.3-2.4c1.2,0,2.4,1.1,2.4,2.3C213.3,41.1,212.3,42.1,211,42.1
	z"/>
<path class="st1" d="M333.6,52.3c0-3.2,2-5,4.7-4.5c1.7,0.3,2.8,1.8,3,4.1c0.2,2.4-1.1,5.3-4.3,5C334.9,56.8,333.6,55,333.6,52.3z"
	/>
<path class="st1" d="M249.6,47.8c1.6,0,2.6,0.7,3.2,2c1,2,0.9,4.1-0.1,6.1c-0.6,1.3-1.8,1.9-3.2,1.9c-1.3,0-2.5-0.6-3.1-1.9
	c-1-2-1-4-0.1-6C247,48.6,248.1,47.8,249.6,47.8z"/>
<path class="st1" d="M322.3,54.7c-0.1,1.6-0.8,2.5-1.9,3.1c-1.2,0.6-2.4,0.6-3.6-0.1c-0.6-0.4-1-1.1-0.8-1.8c0.2-1,1-1.5,1.8-1.6
	c1.1-0.2,2.3-0.3,3.5-0.3C322.2,53.8,322.4,54.1,322.3,54.7z"/>
<path class="st1" d="M145.2,54.8c0,1.4-0.7,2.3-1.8,2.9c-1.2,0.6-2.4,0.6-3.6-0.1c-0.6-0.4-1-1-0.8-1.8c0.2-1,0.9-1.5,1.8-1.6
	c1.1-0.2,2.2-0.3,3.4-0.3C145,53.8,145.4,54.1,145.2,54.8z"/>
<path class="st1" d="M268.6,53.9c2,0,2.3,0.4,1.6,2.1c-0.7,1.8-3.3,2.7-5.1,1.7c-0.8-0.5-1.1-1.1-0.9-2c0.2-1,1-1.4,1.8-1.5
	C266.8,54,267.8,53.8,268.6,53.9z"/>
<path class="st1" d="M359.9,51.1c-2.2,0-4.4,0-6.7,0c-0.5,0-0.6-0.1-0.5-0.6c0.5-1.9,1.9-3,3.6-3C358.4,47.6,359.5,48.7,359.9,51.1z
	"/>
</svg>
