<?xml version="1.0" encoding="utf-8"?>
<!-- Generator: Adobe Illustrator 27.0.0, SVG Export Plug-In . SVG Version: 6.00 Build 0)  -->
<svg version="1.1" id="Layer_1" xmlns="http://www.w3.org/2000/svg" xmlns:xlink="http://www.w3.org/1999/xlink" x="0px" y="0px"
	 viewBox="0 0 500 500" style="enable-background:new 0 0 500 500;" xml:space="preserve">
<style type="text/css">
	.st0{display:none;}
	.st1{display:inline;fill:#26588F;stroke:#26588F;stroke-width:2;stroke-miterlimit:10;}
	.st2{fill:#296618;}
	.st3{fill:#3A7E28;}
	.st4{fill:#C96727;}
</style>
<g class="st0">
	<path class="st1" d="M89.9,411.7c1.2-0.3,2.2-0.3,3-0.1c0.9,0.2,1.6,0.6,2.3,1.2c0.6,0.6,1.1,1.4,1.5,2.3c0.3,0.9,0.5,1.9,0.5,3
		c0.1,3,0.1,5.4,0,7.1c0,1.7,0,3.2,0,4.5v27.9c0,3.3,0,6,0,8.2s-0.1,4-0.3,5.3c-0.2,1.4-0.6,2.4-1.1,3c-0.5,0.7-1.3,1.1-2.3,1.4
		s-2.4,0.4-4,0.4c-1.7,0-3.7,0-6.2,0c-6.5,0-11.7-1.5-15.5-4.6s-5.8-8-6-14.7c-0.1-2.9,0.2-5.6,1.1-8c0.8-2.4,2.1-4.5,3.8-6.2
		c1.7-1.7,3.7-3.1,6.2-4s5.3-1.4,8.4-1.3h5v-16.3c0-1,0-1.9,0-2.9c0-0.9,0.1-1.8,0.3-2.6c0.2-0.8,0.5-1.5,1.1-2.1
		C88,412.5,88.8,412,89.9,411.7z M74.1,462.2c1.3,1.8,3.6,2.7,6.9,2.9c0.7,0.1,1.3,0.1,1.9,0c0.6,0,1.2-0.1,1.6-0.2
		c0.5-0.1,1.1-0.2,1.5-0.3v-16.8c-2.1-0.4-4-0.6-5.8-0.7s-3.4,0.5-5.1,1.9c-0.9,0.7-1.6,1.7-2.1,2.8c-0.5,1.1-0.8,2.3-0.8,3.5
		c-0.1,1.2,0.1,2.5,0.4,3.7S73.4,461.3,74.1,462.2z"/>
	<path class="st1" d="M116,440.8c0,1.7,0,3.6,0,5.7s0,4.3,0,6.6s0,4.5,0,6.7s0,4.3-0.1,6.1c-0.1,0.9-0.2,1.9-0.3,3
		c-0.1,1.1-0.4,2-0.7,3c-0.4,0.9-0.9,1.7-1.7,2.2c-0.8,0.6-1.8,0.8-3,0.8c-1.9-0.1-3.2-0.9-4-2.5c-0.8-1.5-1.3-3.6-1.4-6.4
		c0-1.4,0-3,0-4.8s-0.1-3.7-0.1-5.5c0-1.9,0-3.7,0-5.5s0-3.4,0-4.9c0-0.8,0-1.9,0-3.1s0-2.5,0-3.7c0.1-1.3,0.2-2.5,0.5-3.7
		c0.2-1.2,0.6-2.2,1.2-3c0.4-0.5,1-0.9,1.8-1.1c0.8-0.3,1.6-0.4,2.5-0.4s1.7,0.2,2.5,0.5s1.4,0.7,1.8,1.3c0.2,0.4,0.4,0.9,0.5,1.5
		c0.1,0.7,0.2,1.4,0.3,2.2c0.1,0.8,0.2,1.7,0.2,2.5C116,439.3,116,440.1,116,440.8z M112.6,422.4c-1.9,0.5-3.4,0.3-4.7-0.6
		c-1.2-0.9-2-2.2-2.3-4c-0.2-1.3-0.2-2.4,0.3-3.4c0.4-1,1.1-1.7,1.9-2.2s1.8-0.7,2.9-0.7c1.1,0.1,2.2,0.5,3.3,1.3
		c1,0.7,1.8,1.6,2.2,2.5c0.5,1,0.6,1.9,0.5,2.8c-0.2,0.9-0.6,1.7-1.2,2.5C114.7,421.5,113.8,422.1,112.6,422.4z"/>
	<path class="st1" d="M149.5,434.3c1.8,0.7,3.4,1.8,4.8,3.1c1.5,1.4,2.7,2.9,3.8,4.7c1.1,1.8,1.9,3.7,2.5,5.7s0.9,4.1,0.9,6.1
		c0.1,3.1-0.7,6-2.1,8.7c-1.5,2.7-3.9,4.8-7.2,6.3c-2.5,1-5.2,1.8-7.9,2.3s-5.5,0.9-8.4,1V489c0,0.4,0,0.7-0.1,1s-0.1,0.6-0.1,0.9
		c-0.1,0.6-0.3,1.2-0.4,1.6c-0.2,0.5-0.3,1-0.6,1.5c-0.2,0.4-0.5,0.7-0.7,1s-0.5,0.6-0.8,0.9c-1.5,0.7-3,0.9-4.5,0.5
		c-1-0.1-1.8-0.4-2.4-0.9c-0.5-0.5-0.9-1.1-1.2-1.7c-0.2-0.6-0.5-1.3-0.6-2.1c-0.1-0.3-0.1-0.6-0.1-0.9s0-0.6,0-0.9v-50.7
		c0-0.4,0-0.7,0-1.1s0.1-0.8,0.1-1.2c0.1-0.7,0.2-1.5,0.5-2.2c0.5-1.5,1.7-2.5,3.4-3.1c1.7-0.5,3.6-0.8,5.7-0.7
		c1.5,0.1,3,0.2,4.5,0.5c1.5,0.2,3,0.5,4.5,0.9c1.4,0.3,2.7,0.7,3.9,1C147.8,433.7,148.8,434,149.5,434.3z M149.7,454
		c0.2-1.7,0-3.1-0.6-4.3s-1.5-2.2-2.7-2.9c-1.2-0.8-2.5-1.3-4-1.8c-1.5-0.4-3-0.7-4.4-0.9c-0.2-0.1-0.5-0.1-0.9-0.1s-0.8,0-1.3,0
		c0,1.9,0,3.8,0,5.6c0,1.8,0,3.7,0,5.8v6.1c1.4-0.1,2.9-0.2,4.4-0.5c1.5-0.2,3-0.6,4.3-1.2c1.3-0.5,2.5-1.3,3.4-2.2
		C148.9,456.7,149.5,455.5,149.7,454z"/>
	<path class="st1" d="M180.9,468c-0.1,0.3-0.1,0.6-0.1,0.9s0,0.6,0,0.9l-0.5,1.9c-0.1,0.2-0.2,0.4-0.3,0.5l-0.3,0.5
		c-0.3,0.7-0.9,1.2-1.6,1.6c-1.5,0.7-3,0.9-4.6,0.5c-1-0.1-1.9-0.4-2.5-0.9c-0.6-0.4-1-0.9-1.3-1.5c-0.2-0.6-0.4-1.2-0.5-1.8
		c-0.2-0.6-0.3-1.2-0.3-1.6v-51c0-0.4,0-0.8,0-1.1c0-0.3,0.1-0.7,0.1-1c0.1-0.4,0.1-0.8,0.2-1.1c0.1-0.3,0.2-0.6,0.3-1
		c0.2-0.6,0.5-1.1,1-1.5c0.7-0.5,1.4-0.8,2.1-0.9c0.4-0.1,0.8-0.2,1.2-0.2s0.8,0,1.3,0c0.8,0,1.8,0.2,2.9,0.7c0.8,0.5,1.5,1.2,1.8,2
		c0.6,1.2,0.9,2.3,0.9,3.4c0.1,0.6,0.1,1.5,0.1,2.7s0,2.1,0,2.7v0.4c0.1,1.9,0.2,3.8,0.2,5.6c0,1.8,0,3.7-0.1,5.9c0,2.1,0,4,0,6
		c0,1.9,0,3.8,0,5.7v19.1c0,0.2,0,0.5,0,0.7s0,0.4,0,0.7C181,467.2,180.9,467.7,180.9,468z"/>
	<path class="st1" d="M200.1,434.2c2-1,4.1-1.7,6.3-2.1s4.4-0.5,6.5-0.3c2.2,0.2,4.2,0.8,6.3,1.7c2,0.9,3.9,2.2,5.6,3.8
		c1.4,1.4,2.6,3.1,3.6,5c1,2,1.8,3.9,2.3,5.8c1,3.3,1.2,6.7,0.5,10.1s-2,6.5-3.7,9.5c-0.9,1.3-1.9,2.5-3.1,3.6
		c-1.2,1.1-2.6,1.9-4,2.6c-1.8,0.8-3.8,1.4-5.9,1.8c-2.1,0.3-4.2,0.4-6.2,0.2c-3.6-0.2-6.8-1.1-9.6-2.7s-5-3.7-6.6-6.3
		c-1.7-2.5-2.8-5.4-3.3-8.7c-0.5-3.2-0.3-6.6,0.6-10c1-3.6,2.4-6.6,4.2-8.9C195.3,437.1,197.5,435.4,200.1,434.2z M202.8,446.4
		c-0.9,0.9-1.6,1.9-2.1,3.2c-0.5,1.3-0.8,2.6-0.9,4c-0.1,1.4,0,2.7,0.3,4.1s0.9,2.6,1.6,3.7c0.6,0.9,1.7,1.7,3.3,2.3
		c1.6,0.6,3.2,1,4.9,1.1c1.9,0.1,3.6-0.4,5.1-1.6s2.6-2.7,3.3-4.4c0.8-1.8,1.1-3.7,1-5.7c-0.1-2.1-0.6-3.9-1.6-5.6
		c-0.7-1.2-1.7-2.1-3-2.7s-2.7-0.9-4.1-0.9c-1.4,0-2.8,0.2-4.2,0.6C204.9,444.8,203.8,445.4,202.8,446.4z"/>
	<path class="st1" d="M272.8,435.2c0.5,1.2,0.5,2.4,0.1,3.8s-1.1,2.3-2.1,2.7c-0.5,0.2-1.3,0.4-2.2,0.6c-0.9,0.2-1.9,0.3-3,0.4
		s-2.1,0.2-3.1,0.3c-1,0.1-1.9,0.1-2.6,0.1c0.1,1.8,0.1,3.7,0.2,5.6s0.1,3.8,0.2,5.6c0.1,1.8,0.1,3.6,0.1,5.2c0,1.7,0,3.2-0.1,4.5
		c0,0.9,0,2,0,3.1s-0.1,2.3-0.2,3.4c-0.2,1.1-0.4,2-0.7,2.9c-0.3,0.8-0.8,1.4-1.4,1.6c-1.9,0.8-3.6,1-5.1,0.7s-2.7-1-3.3-2
		c-0.5-0.8-0.9-1.7-1.1-2.8c-0.2-1.1-0.4-2.2-0.5-3.3c-0.1-1.1-0.1-2.2-0.1-3.3c0-1.1,0-2,0-2.8c0.1-2.5,0.1-5.4,0.1-8.7
		c0-3.2,0-6.5,0-9.8h-1.4c-0.7,0-1.7,0-2.8,0s-2.2-0.1-3.4-0.3c-1.1-0.2-2.2-0.4-3.1-0.6c-1-0.3-1.7-0.7-2.1-1.2
		c-0.7-0.8-1.1-1.6-1.2-2.5c-0.2-0.9-0.1-1.8,0.2-2.6c0.3-0.8,0.7-1.5,1.3-2.2c0.6-0.6,1.3-1,2.1-1.2c1.1-0.3,2.6-0.5,4.6-0.5
		s3.9,0,5.6,0c-0.1-0.6-0.1-1.2-0.1-1.8c0-0.6,0-1.1-0.1-1.7c-0.1-0.7-0.1-1.7-0.1-2.8c0-1.1,0.1-2.2,0.2-3.4
		c0.2-1.1,0.4-2.2,0.8-3.2c0.4-1,0.9-1.8,1.5-2.3c0.9-0.7,1.8-1.1,2.8-1.2c0.9-0.1,1.8,0,2.6,0.4c0.8,0.4,1.5,0.9,2.1,1.6
		s1,1.5,1.2,2.3c0.2,0.7,0.3,1.6,0.5,2.6c0.1,1,0.2,2,0.2,3.1s0,2.2,0,3.3s0,2.1,0,3h0.9c0.9,0,2,0,3.2-0.1s2.4,0,3.6,0.1
		s2.3,0.4,3.2,0.9C271.6,433.3,272.4,434.1,272.8,435.2z"/>
	<path class="st1" d="M287.4,434.2c2-1,4.1-1.7,6.3-2.1c2.2-0.4,4.4-0.5,6.5-0.3c2.2,0.2,4.2,0.8,6.3,1.7c2,0.9,3.9,2.2,5.6,3.8
		c1.4,1.4,2.6,3.1,3.6,5c1,2,1.8,3.9,2.3,5.8c1,3.3,1.2,6.7,0.5,10.1s-2,6.5-3.7,9.5c-0.8,1.3-1.9,2.5-3.1,3.6s-2.6,1.9-4,2.6
		c-1.8,0.8-3.8,1.4-5.9,1.8c-2.1,0.3-4.2,0.4-6.2,0.2c-3.6-0.2-6.8-1.1-9.6-2.7c-2.8-1.6-5-3.7-6.6-6.3c-1.7-2.5-2.8-5.4-3.3-8.7
		c-0.5-3.2-0.3-6.6,0.6-10c1-3.6,2.4-6.6,4.2-8.9C282.7,437.1,284.9,435.4,287.4,434.2z M290.1,446.4c-0.9,0.9-1.6,1.9-2.1,3.2
		c-0.5,1.3-0.8,2.6-0.9,4s0,2.7,0.3,4.1s0.9,2.6,1.6,3.7c0.6,0.9,1.7,1.7,3.3,2.3c1.6,0.6,3.2,1,4.9,1.1c1.9,0.1,3.6-0.4,5.1-1.6
		s2.6-2.7,3.3-4.4c0.8-1.8,1.1-3.7,1-5.7c-0.1-2.1-0.6-3.9-1.6-5.6c-0.7-1.2-1.7-2.1-3-2.7s-2.7-0.9-4.1-0.9s-2.8,0.2-4.2,0.6
		C292.3,444.8,291.1,445.4,290.1,446.4z"/>
	<path class="st1" d="M360,440.3c0.5,0.8,0.7,1.8,0.8,2.7c0,1-0.2,1.9-0.7,2.7c-0.5,1.1-1.3,1.8-2.3,2.2c-1,0.4-2.1,0.4-3.3,0.1
		c-0.5-0.1-1-0.3-1.5-0.6c-0.4-0.3-0.9-0.6-1.3-1c-0.5-0.3-1-0.7-1.5-1c-0.6-0.3-1.3-0.5-2.2-0.6c-0.9-0.1-1.9-0.1-3,0
		s-2,0.4-2.9,0.7c-1.3,0.7-2.4,1.7-3.2,3c-0.8,1.4-1.3,2.8-1.5,4.4c-0.2,1.5-0.2,3.1,0.1,4.7c0.3,1.6,1,2.9,2,4
		c0.7,0.9,1.7,1.5,2.9,2.1s2.3,0.9,3.4,1c1,0.1,2.1,0.1,3.1,0s2-0.4,3-0.7c0.7-0.3,1.5-0.7,2.5-1.2c0.9-0.5,1.8-0.8,2.6-1
		c1.1,0,1.9,0.3,2.5,0.9s1,1.3,1.3,2.1c0.2,0.8,0.3,1.7,0.1,2.6c-0.2,0.9-0.5,1.7-1,2.4c-0.7,0.9-1.8,1.8-3.1,2.6
		c-1.3,0.8-2.6,1.4-3.8,1.8c-1.5,0.5-3.1,0.8-4.9,0.8c-1.8,0.1-3.5,0-5-0.2c-0.7-0.1-1.5-0.3-2.3-0.5s-1.5-0.4-2.3-0.6
		c-2.7-1-4.9-2.3-6.7-4.1c-1.8-1.8-3.2-3.8-4.1-6s-1.5-4.6-1.6-7.2c-0.1-2.5,0.2-5.1,0.9-7.6c0.7-2.4,1.5-4.4,2.5-6s2.2-3,3.5-4
		c1.4-1.1,2.9-1.9,4.6-2.5s3.6-1.2,5.6-1.7c2.1-0.4,4.4-0.4,6.7,0c2.4,0.4,4.5,1.2,6.4,2.4C357.8,437.7,359,438.8,360,440.3z"/>
	<path class="st1" d="M405.6,453.6c-0.1,2-0.2,4-0.4,6c-0.1,2-0.4,4-1,5.9c-0.5,1.9-1.3,3.6-2.4,5.1s-2.6,2.7-4.5,3.6
		c-1.7,0.9-3.5,1.4-5.5,1.8c-1.9,0.3-3.9,0.5-5.8,0.4s-3.8-0.3-5.6-0.9s-3.5-1.2-4.9-2.1c-1.5-0.9-2.6-2.1-3.5-3.5
		c-0.9-1.5-1.6-3-2.1-4.7s-0.9-3.5-1-5.3c-0.2-1.8-0.3-3.5-0.4-5.1c-0.2-4.2-0.2-8.3,0-12.4c0-0.8,0-1.7,0-2.7s0.1-2,0.2-3
		c0.2-1,0.4-1.9,0.8-2.7c0.4-0.8,1-1.4,1.8-1.9c1.8-1,3.5-1,5-0.2s2.5,2.6,2.8,5.3c0.2,1.4,0.3,2.9,0.2,4.6c0,1.7,0,3.2,0.1,4.6
		c0.1,2.1,0.1,4.3,0.2,6.7c0.1,2.4,0.4,4.5,1,6.4s1.7,3.3,3.2,4.2c1.5,0.9,3.7,1,6.7,0.1c1.4-0.4,2.3-1.5,2.8-3.2s0.7-4.2,0.7-7.6
		c0-1.5,0-3.1-0.1-4.8c-0.1-1.8-0.1-3.5-0.1-5.2s0-3.3,0.1-4.8s0.3-2.6,0.5-3.4c0.3-1.1,0.9-1.9,1.9-2.5c1-0.5,2-0.8,3.1-0.9
		c1.1,0,2.1,0.2,3.1,0.7s1.6,1.3,2,2.4c0.4,1,0.6,2.2,0.8,3.7c0.2,1.5,0.3,3.1,0.3,4.8c0.1,1.7,0.1,3.5,0,5.3
		C405.7,450.4,405.6,452.1,405.6,453.6z"/>
	<path class="st1" d="M434.8,459.3c-1.2-0.7-2.4-1.3-3.9-1.7c-1.4-0.4-2.9-0.8-4.4-1.2c-1.5-0.4-2.9-0.8-4.3-1.2
		c-1.4-0.5-2.7-1.1-3.8-2c-2.5-1.9-3.9-4.2-4.3-7s0.2-5.5,1.8-8.3c0.8-1.5,2-2.7,3.4-3.6s2.9-1.7,4.6-2.2s3.4-0.8,5.1-0.9
		c1.8-0.1,3.4,0,5,0.3c1,0.2,2.1,0.4,3.3,0.8c1.2,0.3,2.2,0.8,3.2,1.3s1.9,1.2,2.7,2c0.8,0.8,1.4,1.8,1.8,3c0.2,0.8,0.3,1.5,0.1,2.3
		c-0.2,0.7-0.5,1.3-0.9,1.8c-0.5,0.5-1,0.9-1.7,1.1s-1.4,0.3-2.2,0.2c-0.9-0.2-1.8-0.5-2.5-0.8c-0.8-0.4-1.6-0.8-2.4-1.2
		c-0.8-0.4-1.6-0.8-2.4-1.1c-0.8-0.3-1.7-0.5-2.6-0.5c-1.4-0.1-2.5,0.2-3.5,0.7c-0.9,0.5-1.5,1.2-1.9,2c-0.3,0.8-0.3,1.6,0.1,2.5
		s1.2,1.7,2.5,2.4c1.2,0.6,2.4,1.1,3.8,1.5s2.8,0.7,4.1,1.1c1.4,0.4,2.7,0.8,4,1.3s2.5,1.2,3.5,2c2,1.6,3.2,3.5,3.7,5.7
		s0.3,4.3-0.4,6.5c-0.7,2.1-2,4-3.8,5.6s-3.9,2.7-6.3,3.3c-1.8,0.4-3.7,0.5-5.7,0.5s-4-0.2-6-0.6s-3.9-1.1-5.6-2
		c-1.8-0.9-3.3-2.1-4.5-3.5c-0.8-1-1.3-2.1-1.3-3.3c0-1.2,0.2-2.3,0.7-3.3c0.5-0.9,1.3-1.6,2.2-2c1-0.4,2.1-0.2,3.3,0.6
		c1,0.7,2.1,1.3,3.5,2c1.3,0.6,2.7,1.1,4,1.5s2.6,0.5,3.9,0.5s2.3-0.3,3.2-0.8c1.3-0.8,2-1.8,2.1-3
		C436,460.7,435.6,459.9,434.8,459.3z"/>
</g>
<path class="st2" d="M142.7,365.4c-7.2,3.8,8.2,18.3,14.7,18.3s18.5-19.4,12.5-22.1C163.8,358.9,149.9,361.6,142.7,365.4z"/>
<path class="st2" d="M375.3,356.5c0,9.5,10.5,23.8,15.3,23.8c4.7,0,16.7-80.9,8.5-74.5C390.9,312.2,375.3,347,375.3,356.5z"/>
<path class="st3" d="M405.3,31.2c-0.9-13.5-8.9-29.2-26.1-23.5c-17.1,5.7-46.4,18.4-43,35.3s39.1,10.3,35.5,41.9
	c-1.3,19.1-4.1,209.5-258.9,223.8c-45.7,3.2-15.6,75.1,6.4,75.1s-1.3-21.5,22.9-24.8s122.8-12.3,159.4-20.2
	c36.6-7.9,23.1,45,48.5,45c17.1,0,14.5-42.5,44-92.2C423.5,241.8,406,41.3,405.3,31.2z M374.2,33.7c-2.7,0-4.8-2.2-4.8-4.8
	s2.2-4.8,4.8-4.8s4.8,2.2,4.8,4.8S376.8,33.7,374.2,33.7z"/>
<path class="st4" d="M127.7,302c2.6-1.8-2.7-11.8-5.5-12.1c-2.8-0.3-9.4,10.3-6.9,12.1C117.7,303.8,125.2,303.8,127.7,302z"/>
<path class="st4" d="M192.2,289.2c4.1-3.3-6.8-15-10.7-14.7s-7.7,14.5-6.3,18S188,292.5,192.2,289.2z"/>
<path class="st4" d="M253.6,265.9c4.3-5-12.1-16.9-16.9-15.7c-4.7,1.2-8.8,22.2-3.7,23.7C238.1,275.3,249.2,270.9,253.6,265.9z"/>
<path class="st4" d="M309.8,221.3c2.9-7.4-15.9-15.1-21.9-13.6s-7,17.4-0.9,26.8C293.1,244,306.9,228.7,309.8,221.3z"/>
<g class="st0">
	<path class="st1" d="M82.6,404.4l1.6-0.3l1.6,0.4l1.5,0.5l1,0.8l0.8,0.7l-0.2,1.1l0.3,0.9v1.1l-0.2,1v1.1l0.2,0.9l0.2,1.1l-0.2,1.2
		l-0.3,1.2l-0.1,1.1l-0.2,1.1l0.2,1.2l0.1,1.3v1.2l0.2,1.3v2.4l0.2,1.2v2.8l-0.3,1v1.3l-0.3,1.6l0.3,1.5l-0.1,1.2l-0.3,1.4l0.2,1.3
		l-0.3,1.3l-0.4,1.3l0.3,1.2l0.2,1.3l0.2,1.5l0.2,1.8l0.2,1.7v1.8l0.1,1.6l0.3,1.7l-0.4,1.7l0.1,1.7l0.8,1.4l0.2,1.5l1.2,0.4l2-0.4
		l1.6,0.2l0.9-1.1l1,0.2l0.7,1l0.3,0.7l-0.3,0.9l-0.7,0.9l-0.7,0.7l-0.4,1.1l-0.5,0.8l-0.5,0.4l-0.7,0.6l-1.2,0.9l-0.6,1l-0.8,1.1
		H90l-1.1,0.6l-1,0.3l-1.2,1.1l-1.8,0.8l-1.8,0.1l-1.3,0.3l-0.9-0.6l-0.6-0.6l-0.6-0.9l-0.3-0.9l-0.1-0.8l0.4-1.1v-1.9l-0.3-0.8
		l-0.7-0.3l-1.3,0.4l-1.3,0.9l-1.3,1.1l-1.2,1.2l-1,1.2l-0.9,1.2l-1.5,0.6l-1.5,0.5l-1.6,0.4l-1.4,0.3l-1.3,0.2l-1.2-0.4l-1.1-0.4
		l-1.3-0.3l-0.9-0.8l-1.1-0.9l-0.8-1.2l-0.6-0.8l-0.6-0.9l-0.6-1l-1-0.5l-0.2-1.3l-0.6-1l0.2-1.3l-0.3-1.5l-0.8-1.7l-0.2-1.8
		l-0.1-1.7V453l-0.3-3.5l0.6-1.7v-1.6l0.9-1.4l0.8-1.3l0.8-1.6l0.6-1.5l1.3-1l0.6-1.5l1.2-1.1l1.2-1.3l1.4-0.6l1.1-1.2l1.2-1
		l1.6-0.5l1.8-0.4l1.3-0.9l1.5-0.6l1.2-0.6l1-0.2h1.3l2.1,0.2L78,430l0.8-0.3v-0.6l0.3-0.6l-0.4-1.1v-1.8l0.4-1.5l0.2-1.6V421
		l0.1-1.7v-1.5l-0.4-1.5l0.4-1.7l-0.7-1.4l-1.3-0.3h-1.1l-1.3-0.1l-1,0.2l-1.5,0.2l-1.2-0.4l-1.1-0.4l-0.6-1l0.6-0.8l0.6-0.8
		l0.6-0.9l0.5-0.8l0.8-0.5l1.1-0.6l1.3-0.9l1.9-0.5l1.9-0.4l1.3-0.3h1.1L82.6,404.4z M70.8,437.1l-1,0.2h-0.9l-1,0.6l-1.2,0.8
		l-0.8,1l-0.9,1.1l-0.8,1.2l-0.6,1.6l-0.4,1.6l-0.3,1.8l-0.2,1.8v1.8l0.2,1.7l0.2,1.8l0.3,1.8l0.5,1.7l0.8,1.6l0.6,1.3l1,1.2l1,1
		l1.2,0.8l1.2,0.6l1.5,0.3l1.3-0.6l1.3-0.5l0.9-1l0.8-0.9l1.3-0.8l0.8-0.8l0.8-1.1l0.3-1.3v-5l-0.2-1.1l0.2-1l0.2-1.1l-0.3-1.2
		l-0.2-1.3l-0.2-1.3V443l0.3-1.2l0.3-1l0.1-1.3l-0.1-0.7l-0.8-0.2l-0.9-0.2l-0.9-0.4l-1.2-0.3l-1-0.2l-1.1-0.1l-1-0.2L70.8,437.1z"
		/>
	<path class="st1" d="M113.6,429.4l1.1-0.3l1.2,0.3l0.8,0.8l0.9,0.6l0.4,1.2l0.3,1.5l-0.4,1.6l0.2,1.6l-0.3,1.5l0.1,1.7l-0.3,1.5v6
		l0.2,1.5l-0.3,1.6v1.8l-0.2,1.8l0.2,1.8l-0.3,1.5l0.1,0.8v0.9l-0.1,1l0.6,1.1l0.3,1.4l0.4,1.1l0.8,0.1l1.2,0.3l1.3,0.3l1.3,0.3h1.5
		l1.3,0.7l1.2,0.8l0.2,1.4l-1.3,0.6l-1.3,1.1H123l-1,1l-0.8,0.8l-1.2,0.3l-1,0.3h-1.3l-1.2,0.3l-1.3-0.2l-1.7-0.3h-1.4l-1,0.1
		l-1.1,0.2h-3.2l-1.1-0.3l-1,0.3l-1.6-0.3l-1.8-0.8l-1.2-0.4L100,469l0.8-1.2l1.8-1.8l1.1-0.6l1.1-1l1-0.7l1.1-0.8l0.4-1.2l-0.2-1.2
		l0.2-1.2l0.2-1.3v-1l-0.3-1l0.3-1.2l0.1-1.2l-0.1-1l0.3-1l-0.2-1l0.2-1.1v-0.8l0.2-1l-0.2-0.9l0.2-1v-1.9l-0.3-1l0.3-1.1v-1.4
		l-0.4-1.8l-0.8-1l-1.1-0.2h-1.3l-1-0.2l-1.2,0.2l-1.5,0.2l-1.4-0.3l-0.9-1l-0.4-1l0.6-0.8l0.6-0.9l0.9-1l0.8-0.8l1-0.9l1.3-0.8
		l1.3-0.2l0.7,0.3l0.8,0.5l0.9-0.3h2.4l1.2-0.3l2-0.7L113.6,429.4z M112.7,409.5l1.7-0.2l1.3,0.6l1.2,0.6l1,0.8l0.6,1.2l0.3,1.3
		l0.4,1.3l0.6,1.3v1.3l-1,0.8l-1,0.3l-2,0.8l-0.9,0.3l-0.8,0.6l-0.8,0.4l-0.9,0.6l-1,0.2l-1.3-0.8l-1.2-1.2l-1-1.3l-1.1-1.3
		l-0.6-1.3v-1.2l0.4-1.1l0.6-1l1.1-1.2l1.2-0.9l1.4-0.6L112.7,409.5z"/>
	<path class="st1" d="M137,428.2l1.6-0.3h2.2l1.2,0.4l1.6,0.1l0.6,1.3l0.8,1v1.4l0.3,1.3l0.3,1.4l0.4,0.7l1.1-0.1l0.7-0.7l0.9-0.5
		l0.6-0.8l0.8-0.7l0.9-1.3l1.2-1.1l1.3-0.6l1.2-0.8l1.4-0.3l1.4-0.5h1.3l1,0.1l0.8,0.4l0.9,0.3l0.9,0.7l1.2,0.1l1.1,0.5l0.7,0.8
		l1,0.6l0.8,0.6l1.1,0.6l1.3,0.9l0.5,1l0.8,0.8l0.5,0.7l0.5,1.1l0.8,1.7l0.9,0.9l0.3,0.7l0.3,1.2l0.1,1.3l0.4,1.6l0.1,1.3l0.4,1.3
		v1.6l-0.2,1.3l-0.3,0.9l-0.1,1.3v1.9l-0.3,1.7l-0.4,1.7l-0.2,1.3l-0.3,0.9l-1.3,0.9l-0.6,1l-1.1,0.8l-0.9,1.2l-1.2,0.9l-1.2,0.8
		l-1.3,0.8l-1.4,0.6l-1.3,0.8l-1.3,0.8l-1.3,0.7l-1.3,0.3l-1.3,0.7l-1.3,0.4l-1.2,0.3l-1.3,0.3l-1.2-0.3h-1.2l-1.2-0.5l-1.5,0.2
		l-1.2-0.2l-1.2-0.7l-1-0.4l-1.2-0.4l-0.3,0.4l-0.5,1.3v1.5l-0.3,0.8l0.3,1.1l-0.1,0.9v3.3l0.3,1.7v3.4l0.3,1.3l0.2,1.2l0.5,0.8
		l1,0.8l1.5,0.1l1.8,0.3l1.8,0.3l1.5,0.3l1.2,1l-0.3,0.8l-0.8,0.7l-1,0.3l-0.9,0.6l-1.4,0.9l-1.3,0.8l-1.3,0.8l-1.3,0.3l-1.5,0.2
		l-1.5,0.1l-1.5-0.3l-1.5,0.2l-1.5-0.2l-1.5-0.1h-6.6l-1.4-0.2l-1.3-0.6l-0.8-0.7l-0.4-0.8l0.4-1l0.3-0.8l0.5-1l1-0.8l0.8-0.7
		l0.8-0.5l0.8-0.8l1-0.2l1.2-0.8l0.8-0.2l0.3-0.6v-1.2l-0.3-1.3l-0.4-1.1l0.4-1.3v-1.2l0.2-1.2l0.1-1.3l0.2-1.3l-0.3-1.2l0.3-1.2
		l0.2-1.2l0.2-1.5l0.1-1.1l0.3-1.4l-0.3-1.2l0.3-1.3l0.2-1.3l-0.2-1.3l0.2-1.4v-1.3l-0.2-1.4v-1.3l0.3-1.3l-0.5-1l0.3-1.3l-0.5-1.3
		l0.2-1.2l0.1-0.8l0.3-1.1l-0.3-1.1l0.3-0.9l0.4-0.8v-0.9l-0.2-0.9l0.2-1.3l0.3-1.3l-0.2-1.7l-0.3-2l-0.3-1.8l-0.9-0.8l-1.5-0.3
		l-1.7,0.2l-1.4-0.2l-1.3-0.5l-1.6-0.3l-1.1-0.6l-0.3-0.9l0.3-1.3l1.1-0.7l0.6-0.2l1-0.8l0.8,0.1l0.7-0.2l0.9-0.3l1.3-0.3l1.8-0.3
		l1.5-0.3L137,428.2z M152,437.4l-0.8,0.2l-0.8,0.6l-1.2,0.8l-0.7,0.6l-0.8,0.7l-0.6,0.7l-0.4,0.8l-0.7,0.8l-0.3,0.9l-0.4,1.2
		l-0.2,0.9l-0.4,1l-0.1,1.2v2.5l0.1,1.3v2.4l-0.1,1.1v1.2l0.4,0.9l0.7,1l0.8,0.9l0.8,0.7l1.3,0.7l1.2,0.4l1.4,0.3l1,0.7l1.3,0.6
		l1.5,0.5l1.4,0.6h1.2l1.2-0.2l0.8-0.3h0.9l1-0.4l0.7-0.8l0.8-1l0.6-1.3l0.3-1.3l0.3-1.4l0.3-1.3l0.2-1.4l0.1-1.7l-0.3-1.6l-0.2-1.4
		l-0.1-1.4l-0.6-1.2l-0.4-0.9l-0.8-1.3l-0.7-1.7l-1.1-1.3l-1.1-1.3l-1.6-1l-1.5-0.8l-1.3-0.6l-1-0.2l-1-0.1L152,437.4z"/>
	<path class="st1" d="M182.4,407.1l1.3-0.6h1l1.1-0.3h1l1.2-0.6l1,0.6l1.3-0.8l1.2,0.3l1.1,0.2l1.2-0.6l1.2,0.2l0.7,0.6l1,0.3
		l0.8,0.8l0.6,0.8l0.3,1.8l-0.2,1.7l-0.1,1.8l0.1,1.4l0.3,1l-0.4,1.3l0.3,1v1l-0.4,1.1l0.3,1l-0.3,1l-0.2,1.2l0.2,1.2l-0.3,1.2
		l0.3,1.1l-0.4,1.2l-0.2,1.3l0.3,1.3v1.3l0.3,1.3l-0.2,1.4v1.3l0.3,1.3l-0.3,1.3v1.4l-0.3,1.1l0.2,1.3v2.7l-0.3,1.5v1.4L197,449
		l-0.2,1.3l0.6,1.3l0.2,1.3l-0.5,1.3l0.5,1.3l-0.2,1.2l0.4,1.2l-0.3,1.2l-0.2,1.1v1.3l0.3,1.2l0.6,1.1l1,0.9h1.6l1.6,0.3l1.8-0.1
		l1.5,0.3l1.5,0.2l1,1.1l0.3,1l-0.8,0.8l-0.7,0.6l-0.8-0.2l-1,0.3l-1,0.4l-1.2,0.4l-0.8,0.8l-1.1,0.4l-0.9,0.4L199,471l-1.3,0.3
		l-1.1-0.1l-1.2,0.1l-1.2,0.6l-1.3,0.2l-1.2-0.3l-1.3-0.2l-1.4,0.3l-1.2-0.1l-1.3-0.5l-1.2,0.3l-1.3-0.4h-1l-1-0.4l-1-0.3h-1.2
		l-0.7-1l-0.4-1.3l0.4-1.4l1-0.8l0.7-0.8l0.6-1l1.3-0.8l1.1-0.2l1-0.1h1l0.9-0.2l0.4-0.8l0.2-0.9l0.1-1.1l0.2-0.8l-0.2-0.8l-0.1-1
		l0.1-0.9l0.3-1l-0.4-1v-1.3l-0.3-1.4l0.2-1.4l0.3-1.2l-0.3-1l0.4-0.8v-1l-0.3-1l0.1-1l0.4-0.9l-0.3-1l0.4-1l-0.4-1l0.3-1.1v-1.1
		l-0.4-1l0.3-1.2l-0.6-0.8l-0.2-1l-0.2-1.2l0.2-1.4l0.3-1.3l0.1-1.4v-2l0.4-1l0.2-1l-0.2-1l0.2-1l0.2-1.2l-0.4-1.1l0.3-1l0.4-1.1
		l-0.4-1l0.3-1.1l-0.3-1.3l-0.6-1.6l-0.6-0.7l-1.3-0.2l-1.2,0.2l-1.3-0.3l-1.3-0.2l-1.3,0.2l-1.2-0.6l-1.3-0.6l-0.2-1.3l0.8-1.2
		l1-0.8l1.2-0.6L182.4,407.1z"/>
	<path class="st1" d="M230.1,428.2l1.2,0.3l1.1,0.1l1,0.3h2.9l1.7,0.5l1.4,0.8l1.3,0.8l1,1.1l1.1,1l0.8,1.3l1,1l0.7,1.5l1,1.4
		l0.6,1.6l0.3,1.8l1,1.5l0.3,1.8l0.7,1.6v1.6l0.3,1.5l0.2,1.7v1.8l0.4,1.6l-0.4,1.3v1.5l-0.8,1l-0.5,1.3l-0.9,1l-0.8,1.3l-1.3,1
		l-1.5,1.2l-1,1.2l-1.3,1.3l-1.3,1.3l-1.3,1.1l-1.7,0.6l-1,1.4l-1.5,0.6l-1.4,0.3l-1,1l-1.3,0.3H230l-1.1-0.4l-1-0.3l-1.3-0.5
		l-0.8-0.7l-0.6-0.9l-1.1-0.5l-1-0.4l-1.1-0.6l-1-0.2l-1.2-0.6l-1-0.7l-1-1.3l-1.4-1.1l-0.7-1l-0.7-1.1l-0.5-1l-0.3-1.2l-0.8-0.9
		l-0.3-1.3l-0.4-1l-0.6-1.1l-0.5-0.8l-0.3-1.1l-0.3-0.9l-0.2-1.2l0.3-1.5l0.2-1.8l1-1.5l-0.2-1.8l0.4-1.4l0.4-1.7l-0.2-1.2l0.9-0.8
		l0.3-1.3l0.8-0.8l0.4-0.8l1.5-1.3l0.6-0.6l0.8-0.8l0.9-0.4l0.4-0.8l1-0.5l0.9-0.8l1-0.3l0.8-0.7l0.8-0.8l1.3-1l1.6-0.6l1.7-0.8
		L230.1,428.2z M225.3,436.9l-1.1,0.5l-0.6,1.2l-0.6,1.1l-0.5,1.4l-0.2,1.3l-0.3,1.5l-0.6,1.3l0.1,1.6v3.9l0.5,1.3l0.1,1.3l0.8,1.2
		l0.6,1.1l0.4,1.2l0.8,1.1l0.7,0.8l1.7,1.5l0.8,0.6l1.3,0.3l1.3,0.6l1.7,0.6l1.7,0.3l1.8-0.3l1-0.9l1-0.8l0.5-1.4l0.3-1.3v-1.6
		l0.3-1.5v-3.1l-0.2-1.7l-0.4-1.5V447l-0.5-0.9l-0.4-0.9l-0.3-1.1l-0.4-1.1l-0.4-0.9l-0.4-0.8l-0.7-0.9l-0.8-1.1l-1.1-1.2l-1.3-0.8
		l-1.3-0.3h-2.1l-1-0.3l-1.1,0.2L225.3,436.9L225.3,436.9z"/>
	<path class="st1" d="M266.1,421.1l1.1-0.1l1.1,0.4l0.4,0.8l0.7,0.7l0.4,1.1v2.7l-0.4,1.4l0.4,1.1l0.7,0.8l1.5,0.2l1.6,0.2l1.6-0.2
		l1.5-0.3h1.3l0.9,0.3l0.8,0.6l0.4,0.8v0.8l-0.4,0.7l-0.7,0.4l-0.8,0.7l-0.6,0.6l-0.8,0.8L276,436l-0.8,0.6l-0.9,0.4H273l-1.3,0.1
		l-1.1-0.1l-0.9,0.5l-0.7,0.6l-0.2,1.1l-0.2,1.3v1.4l-0.1,1.5l0.3,1.4l-0.2,1.3v1.6l0.2,1.2l0.2,1v0.9l0.1,1v1.8l0.3,0.9v1.1l-0.3,1
		l0.2,1.2l-0.2,1.3l0.2,1.3v1.2l0.8,2.2l0.3,0.9l1.1,0.3l1.3,0.2l1.4-0.6h1.5l1.1,0.3l0.7,0.4l-0.4,0.9l-0.7,0.9l-0.7,1.1l-1.3,0.6
		l-1.1,0.9l-2.7,1.3l-2.7,0.8l-1.5,0.3h-2.6l-0.9-0.6l-0.9-0.3l-0.8-1l-0.5-1.4l-0.6-1.5l-0.3-1.3l0.2-0.9l-0.2-0.9l0.2-1.2l-0.2-1
		l0.2-0.9v-3l-0.2-1l0.2-1l0.3-0.9l-0.2-1.3l0.2-1.1l-0.3-1.2v-2.2l-0.4-0.9l0.2-1.1l-0.2-1.2l-0.2-1.3l0.2-1.3l0.4-1.1l0.1-1.2V439
		l-0.3-1.1l-0.3-0.9h-0.9l-1.3-0.4l-1.1-0.2l-1-0.4l-1-0.3l-0.5-0.9l-0.4-0.9V433l0.8-0.7l1.1-0.8l1.4-0.5l1.1-0.7l1.3-0.9l1.2-0.6
		l1.1-0.8l0.8-1.1l0.7-0.8l0.4-1.2l0.5-1.4l0.7-1.3l0.8-0.8L266.1,421.1z"/>
	<path class="st1" d="M300.6,428.2l1.2,0.3l1.1,0.1l1,0.3h2.9l1.7,0.5l1.4,0.8l1.3,0.8l1,1.1l1.1,1l0.8,1.3l1,1l0.7,1.5l1,1.4
		l0.6,1.6l0.3,1.8l1,1.5l0.3,1.8l0.7,1.6v1.6l0.3,1.5l0.2,1.7v1.8l0.4,1.6l-0.4,1.3v1.5l-0.8,1l-0.5,1.3l-0.9,1l-0.8,1.3l-1.3,1
		l-1.5,1.2l-1,1.2l-1.3,1.3l-1.3,1.3l-1.3,1.1l-1.7,0.6l-1,1.4l-1.5,0.6l-1.4,0.3l-1,1l-1.3,0.3h-1.2l-1.1-0.4l-1-0.3l-1.3-0.5
		l-0.8-0.7l-0.6-0.9l-1.1-0.5l-1-0.4l-1.1-0.6l-1-0.2l-1.2-0.6l-1-0.7l-1-1.3l-1.4-1.1l-0.7-1l-0.7-1.1l-0.5-1l-0.3-1.2l-0.8-0.9
		l-0.3-1.3l-0.4-1l-0.6-1.1l-0.5-0.8l-0.3-1.1l-0.3-0.9l-0.2-1.2l0.3-1.5l0.2-1.8l1-1.5l-0.2-1.8l0.4-1.4l0.4-1.7l-0.2-1.2l0.9-0.8
		l0.3-1.3l0.8-0.8l0.4-0.8l1.5-1.3l0.6-0.6l0.8-0.8l0.9-0.4l0.4-0.8l1-0.5l0.9-0.8l1-0.3l0.8-0.7l0.8-0.8l1.3-1l1.6-0.6l1.7-0.8
		L300.6,428.2z M295.8,436.9l-1.1,0.5l-0.6,1.2l-0.6,1.1l-0.5,1.4l-0.2,1.3l-0.3,1.5l-0.6,1.3l0.1,1.6v3.9l0.5,1.3l0.1,1.3l0.8,1.2
		l0.6,1.1l0.4,1.2l0.8,1.1l0.7,0.8l1.7,1.5l0.8,0.6l1.3,0.3l1.3,0.6l1.7,0.6l1.7,0.3l1.8-0.3l1-0.9l1-0.8l0.5-1.4l0.3-1.3v-1.6
		l0.3-1.5v-3.1l-0.2-1.7l-0.4-1.5V447l-0.5-0.9l-0.4-0.9l-0.3-1.1L307,443l-0.4-0.9l-0.4-0.8l-0.7-0.9l-0.8-1.1l-1.1-1.2l-1.3-0.8
		L301,437h-2.1l-1-0.3l-1.1,0.2L295.8,436.9L295.8,436.9z"/>
	<path class="st1" d="M347.6,428.9l1.6-0.1l1.8,0.4h2l1.8,0.4l1.6,0.3l1.2,0.8l1.3,0.8l0.6,1.4l0.4,1.1l0.3,0.8l0.1,1.3v1.2
		l-0.2,1.3l-0.4,1.4l-0.3,1l-0.5,0.6l-0.6,0.8l-0.9,0.4l-0.8,0.5l-0.8,0.4l-1.6,0.5l-1.8-0.3l-1.9-0.4l-1-1.5l-0.4-1.5l0.3-1.7
		l0.3-1.7l1.6-1.6l-2.8-0.6h-4l-1.4,0.4l-1.2,0.6l-1,0.4l-0.9,0.8l-0.6,0.8l-0.3,1l-0.8,2l-0.5,1.3l-0.1,1.2v3.8l-0.6,1.2l0.2,1.4
		l0.4,1.3l0.4,1l0.2,1.1v1.3l0.6,1.2l0.9,1l0.6,1.6l0.7,1.5l1.4,1.2l1.3,1l1.2,1l1.3,0.6l1,0.2h2l1.1,0.4l1.4-0.1l1-0.5l1.1-0.8
		l0.8-0.9l1.2-0.3l0.8-0.9l1.3,0.2l1.5,0.2l1.4,0.6l0.8,0.7l-0.2,0.9l-0.8,1.6l-1.3,1.3l-1.8,0.8l-1.3,0.6l-0.9,0.6l-1.3,0.3
		L353,469l-0.8,0.8l-0.9,0.8l-1,0.8l-1.2,0.6l-1.2,0.2l-1.5,0.4l-1.4-0.4l-0.8,0.3l-1.1-0.3h-0.9l-1.5-0.2l-1.7-0.8l-1.6-0.5
		l-1.6-0.6l-1.3-1.3l-1.2-1l-1.2-0.9l-0.8-0.7l-0.6-1.2l-0.7-1.7l-0.7-1.5l-1.2-1.3l-0.4-1.3v-1l-0.8-0.8l0.2-1.2l-0.8-1l-0.2-1.5
		v-1.9l0.3-1.9l0.6-1.7l-0.2-1.7l0.3-1.6l0.7-1.8l0.3-1.6l0.8-1.5l0.9-1.6l1.3-1.2l0.8-1.2l1-1.3l1-1.1l1.5-0.4l1.3-0.8l1.2-1
		l1.3-0.8l1.4-0.5l1.4-0.8l1.7-0.3l1.6-0.2h2.3V428.9z"/>
	<path class="st1" d="M391.8,429.9l1.2-0.2h1l1,0.2l1.1,0.3h1.1l1.3-0.3l1.1-0.2l1.2,0.2h1.2l1,0.4l0.9,0.3l1,0.3l1,0.8l0.9,1
		l-0.2,0.9v1.2L406,436l0.4,1.3v1.7l0.2,1.3v1.7l-0.1,1.5v1.5l-0.3,1.4l-0.2,1.3l-0.2,1.5l0.3,3.5v1.8l-0.2,1.3l0.2,1.4l0.3,1.7
		l0.1,1.5l0.3,1.6l0.1,0.6h1l1.5-0.3l1.3,0.5l1.2,1l0.3,0.8l-0.6,0.9l-0.7,0.8L410,467l-1.1,0.7l-1.1,0.9l-1.2,0.7l-1.3,0.4l-1.1,1
		l-1.3,0.5l-1.3,0.2l-1.3,0.4l-1.1,0.4h-1.3l-1.3-0.8l-0.9-1.5l0.2-1.7l-0.2-1.6l-0.5-1.5l-0.4-0.8l-0.7,0.3l-0.6,0.9l-0.9,0.8
		l-0.9,0.5l-0.8,0.7l-1,0.5l-0.8,0.8l-1,0.4l-1.2,0.6l-1.2,0.7l-1.3,0.6l-1.3,0.5l-1.1,0.5l-0.8,0.3l-1-0.2h-0.9l-1.1-0.4l-1.6-0.6
		l-1.3-0.8l-1-0.9l-1-1l-0.8-1l-0.6-1.1l-0.3-1.4l-0.4-1.1l-0.4-1.4l-0.2-1.3l-0.3-1.6l-0.2-1.4l-0.3-1.5l-0.2-1.6v-1.5l-0.2-1.7
		v-8.8l0.2-1.4l-0.2-1.3l0.2-1.3l-0.2-1.1l-1-0.1l-1.4-0.2l-1.5-0.3l-1.3-0.4l-0.8-1l-0.4-1v-1.3l0.7-0.8l1.2-0.7l0.8-1l0.8-0.9
		l1.1-0.3h1.8l0.8-0.2h1.9l0.8,0.2l1-0.2l1.2,0.5h1.6l1.4,0.5l1.4,0.7l0.7,1l-0.2,1.3l-0.1,1.2v1.3l-0.2,1.1l-0.3,1l-0.2,1.3v1
		L379,442v1.2l0.4,1.2v1.2l-0.1,1.2l0.2,0.9v1.3l0.2,1l0.2,1.2l-0.3,1.2v1l0.3,1.2l-0.3,1l0.3,2v1.1l0.4,0.8l0.3,1l0.2,0.9l0.3,0.8
		l0.8,1l0.8,0.9l0.8,1l1.2,0.2l1.8-0.2l1-0.8l1-0.5l0.9-0.6l0.9-0.5l0.8-0.9l0.9-0.4l0.8-0.8l0.6-0.7l0.9-0.9l0.9-1.2l0.5-1.2v-2.9
		l-0.3-1.3l0.3-1.7l0.3-1.8l0.3-1.7l0.6-1.8l0.3-1.4v-0.9l-0.3-1l0.3-1.1l-0.3-1.2l-0.3-1.5l-0.8-1h-1.3l-1,0.2l-1.3,0.1l-1.2-0.1
		l-1.3-0.3l-1.1-0.2l-1-0.3l-0.8-0.9V434l0.6-1.3l2.3-2.3l1.3-0.4L391.8,429.9z"/>
	<path class="st1" d="M432.8,428.9l1.3,0.3l1.2,0.2l1.1-0.2h1.2l1.2-0.2l1,0.4l1.1,0.3l0.9,0.3l1.8,0.8l0.8,0.5l1.2,0.3l1,1.3
		l0.8,1.4l0.7,1.3v1.3l-0.8,1.8L447,440l-0.7,1.1l-0.6,0.8l-0.8,0.3l-1,0.3l-1.2,0.4h-1.1l-1,0.6l-1.3-0.4l-1.1-0.2L437,442
		l-0.7-1.4v-1.1l0.3-1.4l0.4-1.2l0.4-1l-0.9-0.6l-1.2-0.3l-1.4,0.3l-1.3,0.2l-1.3,0.4l-1.2,0.4l-0.7,1l-0.9,0.7l-0.4,0.9l-0.2,1.4
		l0.3,1.7l0.8,1.3l0.8,0.8l1.1,0.6l0.7,1.2l1.2,0.5l0.9,1l1.1,0.8l1.1,0.3l0.9,0.8l0.9,0.6l2,1.3l1,0.4l1.2,0.7l1,0.8l0.9,0.9
		l1.3,0.8l1.3,1l0.5,1.3l0.7,1.3l0.5,1.5l0.2,1.6l-0.2,1.4l-0.5,1.3l-0.4,1.2l-0.5,0.9l-0.3,0.8l-0.8,0.4l-0.8,0.8l-1,0.4l-0.8,0.7
		l-1,0.7l-0.5,1l-1.6,0.4l-1.2,0.6l-1,0.3l-1.3,0.2h-1.6l-1.6,0.3l-1.3-0.2h-2.8l-1.1-0.3l-1.4-0.3l-1.3-0.6h-1.4l-1.3-0.6l-1.1-0.3
		l-1.1-0.8l-1-0.6l-0.6-0.9l-0.7-1l-0.4-1.1l-0.4-0.9l0.1-1l-0.2-1l0.2-0.9l0.6-0.7l0.3-0.8l0.7-0.7l0.6-0.8l0.7-0.7l0.4-0.8
		l0.8-0.4l0.8-0.3l0.8-0.6l0.8-0.1l1.1-0.2l0.8,0.3l0.9,0.2l0.8,0.4l1,0.4l0.7,0.9l0.4,1.2v1.3l0.2,1.7l-1,1.1l-0.7,0.8l1.3,0.8
		l1.7,0.5l1.4-0.5l1.6-0.2l1.3-0.5l1.3,0.3l1.2-0.2l0.4-0.8l-0.2-0.8l-0.4-1.1l-0.7-1.3l-0.8-0.9l-1.2-0.8l-2.7-1.7l-1.3-0.7
		l-1.2-0.8l-1-0.9l-1.5-0.8l-1-0.8l-1.3-0.7l-1.3-0.8l-0.8-0.8l-1-0.8l-0.8-1.1l-0.8-1.3l-1.1-1.4l-1.1-1.3l-0.8-1.2l0.2-1l-0.3-1.1
		l-0.1-1.3l0.3-1.2l0.6-0.9l0.8-0.9l0.2-1l0.8-0.6l0.9-0.6l0.4-0.8l1.1-0.5l0.6-0.5l0.7-1l1.3-0.4l1.3-0.8l1.4-0.5l1.8-0.3l1.3-1
		L432.8,428.9z"/>
</g>
<g class="st0">
	<path class="st1" d="M55.8,453.8c0-3,0.5-6.1,1.6-9.2s2.6-5.8,4.5-8s4.1-3.8,6.5-4.8c2.4-1,5.3-1.5,8.7-1.5s5.4-0.6,6.2-1.8
		c0.8-1.2,1.2-4,1.2-8.2c0-0.8-0.1-1.8-0.4-3.1c-0.3-1.3-0.4-2.1-0.4-2.3c0-1.2,0.5-2.4,1.6-3.4s2.5-1.5,4.2-1.5h0.9
		c1.4,0,2.4,0.3,3,1c0.7,0.6,1,2,1,4v4l-0.1,2c0,0.7,0,1.7,0,3s-0.2,5.5-0.7,12.6c-0.4,7.1-0.7,12-0.7,14.6v1c0,0.7,0,1.4,0,2v1v3.4
		c0,2.9,0.2,5.1,0.7,6.6s0.7,2.5,0.7,3.2c0,0.6-0.4,1.3-1.1,2s-1.8,1-3.4,1s-3-0.3-4.4-0.8s-2.5-0.8-3.1-0.8c-0.7,0-1.5,0.2-2.6,0.6
		c-3.2,1.2-6.2,1.8-8.9,1.8c-0.1,0-0.1,0-0.2,0h-1c-4.4,0-7.8-1.6-10.2-4.8c-2.4-3.2-3.7-7.4-3.7-12.6v-1H55.8z M64.1,451.8v3.3
		c0,3.4,0.8,6.3,2.4,8.6c1.6,2.3,3.4,3.4,5.6,3.4h1.2c3.3,0,5.8-1.3,7.7-3.9c1.8-2.6,2.7-6.5,2.7-11.8c0.1-0.6,0.1-1.1,0.1-1.4
		l0.1-0.9v-1.8v-3.1c0-5.9-2.4-8.8-7.1-8.8h-1.7c-3.1,0-5.7,1.5-7.8,4.6C65.2,443.2,64.1,447.1,64.1,451.8z"/>
	<path class="st1" d="M117.6,434.8l-0.5,11.7l-0.1,1.2l-0.1,3.6v1.7c0,4.2,0.1,6.9,0.4,8.2c0.2,1.3,0.7,2.6,1.4,3.8
		c0.7,1.2,1,2.1,1,2.7v0.4c0,1.4-0.7,2.5-2.2,3.4c-1.4,0.8-3.4,1.3-5.9,1.3h-1.1c-1.4,0-2.5-0.3-3.3-1s-1.1-1.4-1.1-2.1v-1
		c0-0.4,0.3-1.7,1-4s1-5.4,1-9.4c0.1-1.1,0.1-1.9,0.1-2.3l0.1-2.4l0.1-1.2c0.1-2,0.2-3.6,0.2-4.7V443c0-2.2-0.4-4.1-1.1-5.8
		c-0.7-1.7-1.1-2.7-1.1-3.1c0-2.1,2-3.1,5.9-3.1h1.6c1.5,0,2.4,0.4,2.9,1.1C117.4,432.7,117.6,433.6,117.6,434.8z M119.7,416.5v0.5
		c0,1.5-0.4,2.7-1.3,3.8c-0.9,1-2.2,1.5-3.9,1.5h-0.7l-1.3-0.2c-0.8,0-1.5-0.4-2.3-1.1c-0.7-0.7-1.1-1.8-1.1-3.3v-0.5l0.2-1.6
		c0-0.6,0.4-1.4,1.1-2.3s1.7-1.3,2.8-1.3l1-0.1h0.9l1.2,0.2c0.8,0,1.5,0.4,2.2,1.1C119.3,414,119.7,415.1,119.7,416.5z"/>
	<path class="st1" d="M137.3,431.5l6.1,1c0.6,0,2.1-0.4,4.5-1.3s4.6-1.3,6.9-1.3c4.6,0,8.3,1.6,11.1,4.8c2.8,3.2,4.3,7.5,4.3,12.9
		v1.1c0,3.6-0.6,7-1.8,10.1c-2.5,6.3-6.6,10.4-12.4,12.3c-1.6,0.5-3.9,0.9-6.6,1.1c-2.8,0.2-4.7,0.6-5.9,1.1
		c-1.8,0.8-2.6,2.3-2.6,4.4c0,0.9,0.2,2.1,0.5,3.6s0.5,3,0.5,4.3s-0.7,2.6-2.2,3.8c-1.5,1.3-3.3,1.9-5.5,1.9H133
		c-2.6,0-3.9-1-3.9-2.9v-0.8c0-0.4,0.3-1.5,0.8-3.4s1-3.9,1.2-6s0.6-7.4,1.1-15.9s0.8-14.2,0.8-17.3s-0.2-5.7-0.6-7.8
		c-0.4-2.1-0.6-3.3-0.6-3.4C131.9,432.3,133.7,431.5,137.3,431.5z M160.9,447.8c0-3.8-0.8-6.9-2.4-9c-1.6-2.2-3.5-3.3-5.7-3.3h-1.3
		c-3.1,0-5.6,1.2-7.4,3.7c-1.8,2.5-2.7,6.1-2.7,10.9l-0.1,0.9l-0.2,4.5v3c0,3.2,0.6,5.4,1.9,6.7s3.1,1.9,5.5,1.9h0.8
		c3.3,0,6-1.5,8.2-4.5s3.3-6.7,3.3-11l0.1-1L160.9,447.8L160.9,447.8z"/>
	<path class="st1" d="M181.5,412.6c0-2.1,2-3.2,5.9-3.2h0.8c1.6,0,2.8,0.4,3.4,1.2c0.6,0.8,0.9,2.3,0.9,4.6l-0.3,6.5
		c-0.1,1-0.1,1.6-0.1,1.6l-0.1,1.6c-0.1,1.1-0.1,2.2-0.2,3.3l-0.1,1.6l-0.1,2.5c-0.5,8.8-0.7,15.3-0.7,19.5s0.2,7.2,0.6,9
		c0.4,1.8,1,3.4,1.8,4.6c0.8,1.3,1.2,2.1,1.2,2.5v0.5c0,1.3-0.6,2.3-1.9,3s-3,1.1-5.1,1.1h-2.3c-1.3,0-2.5-0.4-3.5-1.1
		c-1-0.8-1.5-1.6-1.5-2.6v-1.2l0.3-1.8c0.3-2.5,0.6-4.4,0.6-5.7c0.1-1.3,0.2-3,0.4-5.2s0.5-7,0.8-14.4c0.4-7.3,0.6-11.3,0.6-11.8
		l0.2-3.3l0.1-3.2c0-3.1-0.3-5.3-0.8-6.6C181.8,414.5,181.5,413.4,181.5,412.6z"/>
	<path class="st1" d="M221.8,473.7h-1.4c-5.1,0-9.2-1.8-12.4-5.3s-4.8-8.5-4.8-15v-0.7c0-7.1,1.9-12.7,5.6-16.8
		c2-2.2,4.2-3.8,6.7-4.8s4.9-1.5,7.2-1.5h2.1c2.5,0,5,0.6,7.3,1.7c6.7,3.2,10.1,9.3,10.1,18.3v0.7c0,2.9-0.5,5.9-1.4,8.9
		c-1.9,5.9-5.4,10.1-10.7,12.6C227.4,473,224.6,473.7,221.8,473.7z M212,454.6c0,3.8,0.9,6.9,2.6,9.5s3.9,3.8,6.4,3.8h1.3
		c3,0,5.5-1.5,7.6-4.5s3.1-7,3.1-12v-2.9c0-3.9-0.8-7-2.5-9.5s-3.9-3.7-6.5-3.7h-1c-3.1,0-5.7,1.5-7.8,4.6s-3.1,6.7-3.1,11l-0.1,1
		L212,454.6L212,454.6z"/>
	<path class="st1" d="M273.9,468.2c0,1.2-0.7,2.2-2.1,3.1s-3.3,1.4-5.7,1.4c-4.5,0-7.6-1.7-9.5-5c-1.1-2.1-1.7-7-1.7-14.6
		c0-7.7-0.1-12.1-0.4-13.4c-0.3-1.2-1-2.5-2.2-3.6c-1.2-1.2-1.8-2.1-1.8-2.7c0-0.2,1.4-1.7,4.2-4.6c0.6-0.6,1.2-2,1.8-4
		c0.6-2.1,1.1-3.5,1.3-4.1c0.9-2.1,2-3.1,3.4-3.1h0.7c1.2,0,2.1,0.5,2.6,1.4c0.2,0.4,0.5,1.7,0.9,4.1c0.4,2.3,0.9,3.8,1.5,4.5
		c0.5,0.7,1.9,1.4,4.1,2.2c2.2,0.8,3.3,1.6,3.3,2.5v0.5c0,1.2-1.3,2.1-3.8,2.9s-4.2,2.1-4.9,3.8c-1.4,3.5-2.1,9.2-2.1,17.1
		c0,3.7,0.6,6.2,1.9,7.5c0.8,0.8,2.3,1.4,4.7,1.7C272.7,466.1,273.9,466.9,273.9,468.2z"/>
	<path class="st1" d="M301,473.7h-1.4c-5.1,0-9.2-1.8-12.4-5.3c-3.2-3.5-4.8-8.5-4.8-15v-0.7c0-7.1,1.9-12.7,5.6-16.8
		c2-2.2,4.2-3.8,6.7-4.8s4.9-1.5,7.2-1.5h2.1c2.5,0,5,0.6,7.3,1.7c6.7,3.2,10.1,9.3,10.1,18.3v0.7c0,2.9-0.5,5.9-1.4,8.9
		c-1.9,5.9-5.4,10.1-10.7,12.6C306.6,473,303.8,473.7,301,473.7z M291.2,454.6c0,3.8,0.9,6.9,2.6,9.5c1.7,2.5,3.9,3.8,6.4,3.8h1.3
		c3,0,5.5-1.5,7.6-4.5s3.1-7,3.1-12v-2.9c0-3.9-0.8-7-2.5-9.5s-3.9-3.7-6.5-3.7h-0.9c-3.1,0-5.7,1.5-7.8,4.6
		c-2.1,3.1-3.1,6.7-3.1,11l-0.1,1v2.7H291.2z"/>
	<path class="st1" d="M329.2,454.8v-2c0-3.6,0.6-6.9,1.7-9.7c2.2-5.4,5.5-9.2,10-11.3c2.9-1.4,5.9-2.1,9.1-2.1h1
		c3.4,0,6.3,0.7,8.5,2c2.3,1.4,3.4,3,3.4,5c0,2.3-1.1,3.4-3.3,3.4c-0.4,0-1.8-0.6-4.3-1.9c-2.4-1.2-4.4-1.9-6-1.9h-0.1
		c-3.4,0-6.1,1.5-8,4.4s-2.9,6.8-2.9,11.5s1,8.3,3.1,10.5c2,2.3,4.9,3.4,8.5,3.4c1.5,0,3.6-0.4,6.2-1.3s4.2-1.3,4.8-1.3
		c1.2,0,1.8,0.6,1.8,1.9c0,1.7-1.7,3.4-5,5.1s-6.6,2.6-9.8,2.6c-8.6,0-14.3-3.4-17-10.2C329.8,460.5,329.2,457.7,329.2,454.8z"/>
	<path class="st1" d="M372.2,433.9c0-1.8,1.5-2.7,4.6-2.7h1c1.9,0,3.2,0.8,3.9,2.3c0.7,1.5,1,4.4,1,8.6l-0.5,14.5
		c0,6.7,2.4,10.1,7.2,10.1c1.8,0,3.5-0.6,5.1-1.9c1.6-1.2,2.8-2.7,3.6-4.5c1.7-3.8,2.6-10.7,2.6-20.5l-0.1-1.9v-1.7
		c0-1.5,0.3-2.6,1-3.3c0.7-0.7,1.9-1,3.6-1s2.9,0.4,3.4,1.3c0.5,0.8,0.8,2.2,0.8,4.1l-0.1,2.3l-0.2,10.2c0,1.6,0.1,4.2,0.3,7.6
		c0.2,3.4,0.4,5.9,0.7,7.5c0.2,1.6,0.3,2.5,0.3,2.8c0,2.6-1.9,3.9-5.7,3.9c-1.3,0-2.6-0.5-3.9-1.5s-2.2-1.5-2.7-1.5s-1.4,0.3-2.7,1
		c-3.6,1.8-6.7,2.7-9.2,2.7h-1.1c-4.1,0-7.2-1.3-9.1-3.8s-2.9-7.1-2.9-13.8l0.4-13.1c0-1.6-0.2-3.2-0.7-4.7S372.2,434.3,372.2,433.9
		z"/>
	<path class="st1" d="M424.6,448.7c-1.8-1.8-2.7-4.3-2.7-7.5s1.4-6,4.3-8.3s6.5-3.5,10.8-3.5h1.1c3.8,0,6.8,0.5,9,1.6
		s3.4,2.7,3.4,4.8c0,2.1-0.9,3.2-2.8,3.2c-0.5,0-1.9-0.6-4.2-1.8s-4.4-1.8-6.5-1.8s-3.7,0.5-4.9,1.4c-1.2,0.9-1.8,2.2-1.8,3.8
		c0,1.6,0.9,3,2.6,4.2c1,0.7,3.3,1.8,7,3.3s6.3,2.9,7.8,4.3c2.5,2.2,3.8,5.1,3.8,8.5c0,3.5-1.5,6.4-4.4,8.9s-6.8,3.7-11.5,3.7h-1.1
		c-4.7,0-8.3-0.7-10.7-2.1c-2.4-1.4-3.6-3.2-3.6-5.4s0.9-3.3,2.8-3.3c0.6,0,2.2,0.8,4.8,2.3c2.6,1.6,5.1,2.3,7.5,2.3
		s4.3-0.5,5.6-1.6s1.9-2.4,1.9-4s-0.8-3-2.3-4.2c-0.8-0.7-3.2-1.9-7.2-3.6C429.2,452.2,426.4,450.4,424.6,448.7z"/>
</g>
</svg>
