<?xml version="1.0" encoding="utf-8"?>
<!-- Generator: Adobe Illustrator 27.0.0, SVG Export Plug-In . SVG Version: 6.00 Build 0)  -->
<svg version="1.1" id="Layer_1" xmlns="http://www.w3.org/2000/svg" xmlns:xlink="http://www.w3.org/1999/xlink" x="0px" y="0px"
	 viewBox="0 0 500 500" style="enable-background:new 0 0 500 500;" xml:space="preserve">
<style type="text/css">
	.st0{fill:#26588F;stroke:#26588F;stroke-width:2;stroke-miterlimit:10;}
	.st1{fill:#296618;}
	.st2{fill:#3A7E28;}
	.st3{fill:#C96727;}
</style>
<g>
	<path class="st0" d="M89.9,411.7c1.2-0.3,2.2-0.3,3-0.1c0.9,0.2,1.6,0.6,2.3,1.2c0.6,0.6,1.1,1.4,1.5,2.3c0.3,0.9,0.5,1.9,0.5,3
		c0.1,3,0.1,5.4,0,7.1c0,1.7,0,3.2,0,4.5v27.9c0,3.3,0,6,0,8.2s-0.1,4-0.3,5.3c-0.2,1.4-0.6,2.4-1.1,3c-0.5,0.7-1.3,1.1-2.3,1.4
		c-1,0.3-2.4,0.4-4,0.4c-1.7,0-3.7,0-6.2,0c-6.5,0-11.7-1.5-15.5-4.6c-3.8-3.1-5.8-8-6-14.7c-0.1-2.9,0.2-5.6,1.1-8
		c0.8-2.4,2.1-4.5,3.8-6.2c1.7-1.7,3.7-3.1,6.2-4c2.5-0.9,5.3-1.4,8.4-1.3h5v-16.3c0-1,0-1.9,0-2.9c0-0.9,0.1-1.8,0.3-2.6
		c0.2-0.8,0.5-1.5,1.1-2.1C88,412.5,88.8,412,89.9,411.7z M74.1,462.2c1.3,1.8,3.6,2.7,6.9,2.9c0.7,0.1,1.3,0.1,1.9,0
		c0.6,0,1.2-0.1,1.6-0.2c0.5-0.1,1.1-0.2,1.5-0.3v-16.8c-2.1-0.4-4-0.6-5.8-0.7s-3.4,0.5-5.1,1.9c-0.9,0.7-1.6,1.7-2.1,2.8
		c-0.5,1.1-0.8,2.3-0.8,3.5c-0.1,1.2,0.1,2.5,0.4,3.7C72.9,460.2,73.4,461.3,74.1,462.2z"/>
	<path class="st0" d="M116,440.8c0,1.7,0,3.6,0,5.7c0,2.1,0,4.3,0,6.6s0,4.5,0,6.7c0,2.2,0,4.3-0.1,6.1c-0.1,0.9-0.2,1.9-0.3,3
		c-0.1,1.1-0.4,2-0.7,3c-0.4,0.9-0.9,1.7-1.7,2.2c-0.8,0.6-1.8,0.8-3,0.8c-1.9-0.1-3.2-0.9-4-2.5c-0.8-1.5-1.3-3.6-1.4-6.4
		c0-1.4,0-3,0-4.8c0-1.8-0.1-3.7-0.1-5.5c0-1.9,0-3.7,0-5.5c0-1.8,0-3.4,0-4.9c0-0.8,0-1.9,0-3.1c0-1.2,0-2.5,0-3.7
		c0.1-1.3,0.2-2.5,0.5-3.7c0.2-1.2,0.6-2.2,1.2-3c0.4-0.5,1-0.9,1.8-1.1c0.8-0.3,1.6-0.4,2.5-0.4c0.9,0,1.7,0.2,2.5,0.5
		c0.8,0.3,1.4,0.7,1.8,1.3c0.2,0.4,0.4,0.9,0.5,1.5c0.1,0.7,0.2,1.4,0.3,2.2c0.1,0.8,0.2,1.7,0.2,2.5C116,439.3,116,440.1,116,440.8
		z M112.6,422.4c-1.9,0.5-3.4,0.3-4.7-0.6c-1.2-0.9-2-2.2-2.3-4c-0.2-1.3-0.2-2.4,0.3-3.4c0.4-1,1.1-1.7,1.9-2.2
		c0.8-0.5,1.8-0.7,2.9-0.7c1.1,0.1,2.2,0.5,3.3,1.3c1,0.7,1.8,1.6,2.2,2.5c0.5,1,0.6,1.9,0.5,2.8c-0.2,0.9-0.6,1.7-1.2,2.5
		C114.7,421.5,113.8,422.1,112.6,422.4z"/>
	<path class="st0" d="M149.5,434.3c1.8,0.7,3.4,1.8,4.8,3.1c1.5,1.4,2.7,2.9,3.8,4.7c1.1,1.8,1.9,3.7,2.5,5.7c0.6,2,0.9,4.1,0.9,6.1
		c0.1,3.1-0.7,6-2.1,8.7c-1.5,2.7-3.9,4.8-7.2,6.3c-2.5,1-5.2,1.8-7.9,2.3c-2.7,0.5-5.5,0.9-8.4,1V489c0,0.4,0,0.7-0.1,1
		c-0.1,0.3-0.1,0.6-0.1,0.9c-0.1,0.6-0.3,1.2-0.4,1.6c-0.2,0.5-0.3,1-0.6,1.5c-0.2,0.4-0.5,0.7-0.7,1c-0.2,0.3-0.5,0.6-0.8,0.9
		c-1.5,0.7-3,0.9-4.5,0.5c-1-0.1-1.8-0.4-2.4-0.9c-0.5-0.5-0.9-1.1-1.2-1.7c-0.2-0.6-0.5-1.3-0.6-2.1c-0.1-0.3-0.1-0.6-0.1-0.9
		c0-0.3,0-0.6,0-0.9v-50.7c0-0.4,0-0.7,0-1.1c0-0.4,0.1-0.8,0.1-1.2c0.1-0.7,0.2-1.5,0.5-2.2c0.5-1.5,1.7-2.5,3.4-3.1
		c1.7-0.5,3.6-0.8,5.7-0.7c1.5,0.1,3,0.2,4.5,0.5c1.5,0.2,3,0.5,4.5,0.9c1.4,0.3,2.7,0.7,3.9,1C147.8,433.7,148.8,434,149.5,434.3z
		 M149.7,454c0.2-1.7,0-3.1-0.6-4.3s-1.5-2.2-2.7-2.9c-1.2-0.8-2.5-1.3-4-1.8c-1.5-0.4-3-0.7-4.4-0.9c-0.2-0.1-0.5-0.1-0.9-0.1
		c-0.4,0-0.8,0-1.3,0c0,1.9,0,3.8,0,5.6c0,1.8,0,3.7,0,5.8v6.1c1.4-0.1,2.9-0.2,4.4-0.5c1.5-0.2,3-0.6,4.3-1.2
		c1.3-0.5,2.5-1.3,3.4-2.2C148.9,456.7,149.5,455.5,149.7,454z"/>
	<path class="st0" d="M180.9,468c-0.1,0.3-0.1,0.6-0.1,0.9c0,0.3,0,0.6,0,0.9l-0.5,1.9c-0.1,0.2-0.2,0.4-0.3,0.5l-0.3,0.5
		c-0.3,0.7-0.9,1.2-1.6,1.6c-1.5,0.7-3,0.9-4.6,0.5c-1-0.1-1.9-0.4-2.5-0.9c-0.6-0.4-1-0.9-1.3-1.5c-0.2-0.6-0.4-1.2-0.5-1.8
		c-0.2-0.6-0.3-1.2-0.3-1.6V418c0-0.4,0-0.8,0-1.1c0-0.3,0.1-0.7,0.1-1c0.1-0.4,0.1-0.8,0.2-1.1c0.1-0.3,0.2-0.6,0.3-1
		c0.2-0.6,0.5-1.1,1-1.5c0.7-0.5,1.4-0.8,2.1-0.9c0.4-0.1,0.8-0.2,1.2-0.2c0.4,0,0.8,0,1.3,0c0.8,0,1.8,0.2,2.9,0.7
		c0.8,0.5,1.5,1.2,1.8,2c0.6,1.2,0.9,2.3,0.9,3.4c0.1,0.6,0.1,1.5,0.1,2.7c0,1.2,0,2.1,0,2.7v0.4c0.1,1.9,0.2,3.8,0.2,5.6
		c0,1.8,0,3.7-0.1,5.9c0,2.1,0,4,0,6c0,1.9,0,3.8,0,5.7v19.1c0,0.2,0,0.5,0,0.7c0,0.2,0,0.4,0,0.7C181,467.2,180.9,467.7,180.9,468z
		"/>
	<path class="st0" d="M200.1,434.2c2-1,4.1-1.7,6.3-2.1c2.2-0.4,4.4-0.5,6.5-0.3c2.2,0.2,4.2,0.8,6.3,1.7c2,0.9,3.9,2.2,5.6,3.8
		c1.4,1.4,2.6,3.1,3.6,5c1,2,1.8,3.9,2.3,5.8c1,3.3,1.2,6.7,0.5,10.1c-0.7,3.4-2,6.5-3.7,9.5c-0.9,1.3-1.9,2.5-3.1,3.6
		c-1.2,1.1-2.6,1.9-4,2.6c-1.8,0.8-3.8,1.4-5.9,1.8c-2.1,0.3-4.2,0.4-6.2,0.2c-3.6-0.2-6.8-1.1-9.6-2.7c-2.8-1.6-5-3.7-6.6-6.3
		c-1.7-2.5-2.8-5.4-3.3-8.7c-0.5-3.2-0.3-6.6,0.6-10c1-3.6,2.4-6.6,4.2-8.9C195.3,437.1,197.5,435.4,200.1,434.2z M202.8,446.4
		c-0.9,0.9-1.6,1.9-2.1,3.2c-0.5,1.3-0.8,2.6-0.9,4c-0.1,1.4,0,2.7,0.3,4.1c0.3,1.4,0.9,2.6,1.6,3.7c0.6,0.9,1.7,1.7,3.3,2.3
		c1.6,0.6,3.2,1,4.9,1.1c1.9,0.1,3.6-0.4,5.1-1.6s2.6-2.7,3.3-4.4c0.8-1.8,1.1-3.7,1-5.7c-0.1-2.1-0.6-3.9-1.6-5.6
		c-0.7-1.2-1.7-2.1-3-2.7c-1.3-0.6-2.7-0.9-4.1-0.9c-1.4,0-2.8,0.2-4.2,0.6C204.9,444.8,203.8,445.4,202.8,446.4z"/>
	<path class="st0" d="M272.8,435.2c0.5,1.2,0.5,2.4,0.1,3.8c-0.4,1.4-1.1,2.3-2.1,2.7c-0.5,0.2-1.3,0.4-2.2,0.6
		c-0.9,0.2-1.9,0.3-3,0.4c-1.1,0.1-2.1,0.2-3.1,0.3c-1,0.1-1.9,0.1-2.6,0.1c0.1,1.8,0.1,3.7,0.2,5.6c0.1,1.9,0.1,3.8,0.2,5.6
		c0.1,1.8,0.1,3.6,0.1,5.2c0,1.7,0,3.2-0.1,4.5c0,0.9,0,2,0,3.1s-0.1,2.3-0.2,3.4c-0.2,1.1-0.4,2-0.7,2.9c-0.3,0.8-0.8,1.4-1.4,1.6
		c-1.9,0.8-3.6,1-5.1,0.7c-1.5-0.3-2.7-1-3.3-2c-0.5-0.8-0.9-1.7-1.1-2.8c-0.2-1.1-0.4-2.2-0.5-3.3c-0.1-1.1-0.1-2.2-0.1-3.3
		c0-1.1,0-2,0-2.8c0.1-2.5,0.1-5.4,0.1-8.7c0-3.2,0-6.5,0-9.8h-1.4c-0.7,0-1.7,0-2.8,0c-1.1,0-2.2-0.1-3.4-0.3
		c-1.1-0.2-2.2-0.4-3.1-0.6c-1-0.3-1.7-0.7-2.1-1.2c-0.7-0.8-1.1-1.6-1.2-2.5c-0.2-0.9-0.1-1.8,0.2-2.6c0.3-0.8,0.7-1.5,1.3-2.2
		c0.6-0.6,1.3-1,2.1-1.2c1.1-0.3,2.6-0.5,4.6-0.5c2,0,3.9,0,5.6,0c-0.1-0.6-0.1-1.2-0.1-1.8c0-0.6,0-1.1-0.1-1.7
		c-0.1-0.7-0.1-1.7-0.1-2.8c0-1.1,0.1-2.2,0.2-3.4c0.2-1.1,0.4-2.2,0.8-3.2c0.4-1,0.9-1.8,1.5-2.3c0.9-0.7,1.8-1.1,2.8-1.2
		c0.9-0.1,1.8,0,2.6,0.4c0.8,0.4,1.5,0.9,2.1,1.6c0.6,0.7,1,1.5,1.2,2.3c0.2,0.7,0.3,1.6,0.5,2.6c0.1,1,0.2,2,0.2,3.1
		c0,1.1,0,2.2,0,3.3s0,2.1,0,3h0.9c0.9,0,2,0,3.2-0.1c1.2-0.1,2.4,0,3.6,0.1c1.2,0.1,2.3,0.4,3.2,0.9
		C271.6,433.3,272.4,434.1,272.8,435.2z"/>
	<path class="st0" d="M287.4,434.2c2-1,4.1-1.7,6.3-2.1c2.2-0.4,4.4-0.5,6.5-0.3c2.2,0.2,4.2,0.8,6.3,1.7c2,0.9,3.9,2.2,5.6,3.8
		c1.4,1.4,2.6,3.1,3.6,5c1,2,1.8,3.9,2.3,5.8c1,3.3,1.2,6.7,0.5,10.1c-0.7,3.4-2,6.5-3.7,9.5c-0.8,1.3-1.9,2.5-3.1,3.6
		c-1.2,1.1-2.6,1.9-4,2.6c-1.8,0.8-3.8,1.4-5.9,1.8c-2.1,0.3-4.2,0.4-6.2,0.2c-3.6-0.2-6.8-1.1-9.6-2.7c-2.8-1.6-5-3.7-6.6-6.3
		c-1.7-2.5-2.8-5.4-3.3-8.7c-0.5-3.2-0.3-6.6,0.6-10c1-3.6,2.4-6.6,4.2-8.9C282.7,437.1,284.9,435.4,287.4,434.2z M290.1,446.4
		c-0.9,0.9-1.6,1.9-2.1,3.2c-0.5,1.3-0.8,2.6-0.9,4c-0.1,1.4,0,2.7,0.3,4.1c0.3,1.4,0.9,2.6,1.6,3.7c0.6,0.9,1.7,1.7,3.3,2.3
		c1.6,0.6,3.2,1,4.9,1.1c1.9,0.1,3.6-0.4,5.1-1.6c1.5-1.2,2.6-2.7,3.3-4.4c0.8-1.8,1.1-3.7,1-5.7c-0.1-2.1-0.6-3.9-1.6-5.6
		c-0.7-1.2-1.7-2.1-3-2.7c-1.3-0.6-2.7-0.9-4.1-0.9c-1.4,0-2.8,0.2-4.2,0.6C292.3,444.8,291.1,445.4,290.1,446.4z"/>
	<path class="st0" d="M360,440.3c0.5,0.8,0.7,1.8,0.8,2.7c0,1-0.2,1.9-0.7,2.7c-0.5,1.1-1.3,1.8-2.3,2.2c-1,0.4-2.1,0.4-3.3,0.1
		c-0.5-0.1-1-0.3-1.5-0.6c-0.4-0.3-0.9-0.6-1.3-1c-0.5-0.3-1-0.7-1.5-1c-0.6-0.3-1.3-0.5-2.2-0.6c-0.9-0.1-1.9-0.1-3,0
		c-1.1,0.1-2,0.4-2.9,0.7c-1.3,0.7-2.4,1.7-3.2,3c-0.8,1.4-1.3,2.8-1.5,4.4c-0.2,1.5-0.2,3.1,0.1,4.7c0.3,1.6,1,2.9,2,4
		c0.7,0.9,1.7,1.5,2.9,2.1s2.3,0.9,3.4,1c1,0.1,2.1,0.1,3.1,0s2-0.4,3-0.7c0.7-0.3,1.5-0.7,2.5-1.2c0.9-0.5,1.8-0.8,2.6-1
		c1.1,0,1.9,0.3,2.5,0.9c0.6,0.6,1,1.3,1.3,2.1c0.2,0.8,0.3,1.7,0.1,2.6c-0.2,0.9-0.5,1.7-1,2.4c-0.7,0.9-1.8,1.8-3.1,2.6
		c-1.3,0.8-2.6,1.4-3.8,1.8c-1.5,0.5-3.1,0.8-4.9,0.8c-1.8,0.1-3.5,0-5-0.2c-0.7-0.1-1.5-0.3-2.3-0.5c-0.8-0.2-1.5-0.4-2.3-0.6
		c-2.7-1-4.9-2.3-6.7-4.1c-1.8-1.8-3.2-3.8-4.1-6c-0.9-2.2-1.5-4.6-1.6-7.2c-0.1-2.5,0.2-5.1,0.9-7.6c0.7-2.4,1.5-4.4,2.5-6
		c1-1.6,2.2-3,3.5-4c1.4-1.1,2.9-1.9,4.6-2.5c1.7-0.6,3.6-1.2,5.6-1.7c2.1-0.4,4.4-0.4,6.7,0c2.4,0.4,4.5,1.2,6.4,2.4
		C357.8,437.7,359,438.8,360,440.3z"/>
	<path class="st0" d="M405.6,453.6c-0.1,2-0.2,4-0.4,6c-0.1,2-0.4,4-1,5.9c-0.5,1.9-1.3,3.6-2.4,5.1c-1.1,1.5-2.6,2.7-4.5,3.6
		c-1.7,0.9-3.5,1.4-5.5,1.8c-1.9,0.3-3.9,0.5-5.8,0.4c-1.9-0.1-3.8-0.3-5.6-0.9s-3.5-1.2-4.9-2.1c-1.5-0.9-2.6-2.1-3.5-3.5
		c-0.9-1.5-1.6-3-2.1-4.7c-0.5-1.7-0.9-3.5-1-5.3c-0.2-1.8-0.3-3.5-0.4-5.1c-0.2-4.2-0.2-8.3,0-12.4c0-0.8,0-1.7,0-2.7
		c0-1,0.1-2,0.2-3c0.2-1,0.4-1.9,0.8-2.7c0.4-0.8,1-1.4,1.8-1.9c1.8-1,3.5-1,5-0.2c1.5,0.8,2.5,2.6,2.8,5.3c0.2,1.4,0.3,2.9,0.2,4.6
		c0,1.7,0,3.2,0.1,4.6c0.1,2.1,0.1,4.3,0.2,6.7c0.1,2.4,0.4,4.5,1,6.4c0.6,1.9,1.7,3.3,3.2,4.2c1.5,0.9,3.7,1,6.7,0.1
		c1.4-0.4,2.3-1.5,2.8-3.2c0.5-1.7,0.7-4.2,0.7-7.6c0-1.5,0-3.1-0.1-4.8c-0.1-1.8-0.1-3.5-0.1-5.2c0-1.7,0-3.3,0.1-4.8
		c0.1-1.5,0.3-2.6,0.5-3.4c0.3-1.1,0.9-1.9,1.9-2.5c1-0.5,2-0.8,3.1-0.9c1.1,0,2.1,0.2,3.1,0.7c1,0.5,1.6,1.3,2,2.4
		c0.4,1,0.6,2.2,0.8,3.7c0.2,1.5,0.3,3.1,0.3,4.8c0.1,1.7,0.1,3.5,0,5.3C405.7,450.4,405.6,452.1,405.6,453.6z"/>
	<path class="st0" d="M434.8,459.3c-1.2-0.7-2.4-1.3-3.9-1.7c-1.4-0.4-2.9-0.8-4.4-1.2c-1.5-0.4-2.9-0.8-4.3-1.2
		c-1.4-0.5-2.7-1.1-3.8-2c-2.5-1.9-3.9-4.2-4.3-7c-0.4-2.8,0.2-5.5,1.8-8.3c0.8-1.5,2-2.7,3.4-3.6c1.4-0.9,2.9-1.7,4.6-2.2
		c1.7-0.5,3.4-0.8,5.1-0.9c1.8-0.1,3.4,0,5,0.3c1,0.2,2.1,0.4,3.3,0.8c1.2,0.3,2.2,0.8,3.2,1.3s1.9,1.2,2.7,2c0.8,0.8,1.4,1.8,1.8,3
		c0.2,0.8,0.3,1.5,0.1,2.3c-0.2,0.7-0.5,1.3-0.9,1.8c-0.5,0.5-1,0.9-1.7,1.1c-0.7,0.2-1.4,0.3-2.2,0.2c-0.9-0.2-1.8-0.5-2.5-0.8
		c-0.8-0.4-1.6-0.8-2.4-1.2c-0.8-0.4-1.6-0.8-2.4-1.1c-0.8-0.3-1.7-0.5-2.6-0.5c-1.4-0.1-2.5,0.2-3.5,0.7c-0.9,0.5-1.5,1.2-1.9,2
		c-0.3,0.8-0.3,1.6,0.1,2.5c0.4,0.9,1.2,1.7,2.5,2.4c1.2,0.6,2.4,1.1,3.8,1.5c1.4,0.4,2.8,0.7,4.1,1.1c1.4,0.4,2.7,0.8,4,1.3
		c1.3,0.5,2.5,1.2,3.5,2c2,1.6,3.2,3.5,3.7,5.7c0.5,2.2,0.3,4.3-0.4,6.5c-0.7,2.1-2,4-3.8,5.6c-1.8,1.6-3.9,2.7-6.3,3.3
		c-1.8,0.4-3.7,0.5-5.7,0.5c-2,0-4-0.2-6-0.6c-2-0.4-3.9-1.1-5.6-2c-1.8-0.9-3.3-2.1-4.5-3.5c-0.8-1-1.3-2.1-1.3-3.3
		c0-1.2,0.2-2.3,0.7-3.3c0.5-0.9,1.3-1.6,2.2-2c1-0.4,2.1-0.2,3.3,0.6c1,0.7,2.1,1.3,3.5,2c1.3,0.6,2.7,1.1,4,1.5
		c1.3,0.4,2.6,0.5,3.9,0.5s2.3-0.3,3.2-0.8c1.3-0.8,2-1.8,2.1-3C436,460.7,435.6,459.9,434.8,459.3z"/>
</g>
<path class="st1" d="M142.7,365.4c-7.2,3.8,8.2,18.3,14.7,18.3c6.5,0,18.5-19.4,12.5-22.1C163.8,358.9,149.9,361.6,142.7,365.4z"/>
<path class="st1" d="M375.3,356.5c0,9.5,10.5,23.8,15.3,23.8c4.7,0,16.7-80.9,8.5-74.5C390.9,312.2,375.3,347,375.3,356.5z"/>
<path class="st2" d="M405.3,31.2c-0.9-13.5-8.9-29.2-26.1-23.5c-17.1,5.7-46.4,18.4-43,35.3c3.4,16.9,39.1,10.3,35.5,41.9
	c-1.3,19.1-4.1,209.5-258.9,223.8c-45.7,3.2-15.6,75.1,6.4,75.1s-1.3-21.5,22.9-24.8c24.2-3.3,122.8-12.3,159.4-20.2
	c36.6-7.9,23.1,45,48.5,45c17.1,0,14.5-42.5,44-92.2C423.5,241.8,406,41.3,405.3,31.2z M374.2,33.7c-2.7,0-4.8-2.2-4.8-4.8
	s2.2-4.8,4.8-4.8s4.8,2.2,4.8,4.8S376.8,33.7,374.2,33.7z"/>
<path class="st3" d="M131.8,300.7c4.4-3.1-4.7-20.2-9.5-20.8c-4.8-0.6-16.1,17.6-11.9,20.8C114.6,303.9,127.4,303.8,131.8,300.7z"/>
<path class="st3" d="M194.3,288.6c5.2-4.1-8.5-18.8-13.4-18.5c-4.9,0.3-9.7,18.2-7.9,22.6S189.2,292.7,194.3,288.6z"/>
<path class="st3" d="M253.6,265.9c4.3-5-12.1-16.9-16.9-15.7c-4.7,1.2-8.8,22.2-3.7,23.7C238.1,275.3,249.2,270.9,253.6,265.9z"/>
<path class="st3" d="M303.8,229.5c2.3-5.8-12.5-11.9-17.3-10.8s-5.5,13.7-0.7,21.2C290.7,247.3,301.6,235.3,303.8,229.5z"/>
</svg>
